<svg width="6" height="9" viewBox="0 0 6 9" fill="none" xmlns="http://www.w3.org/2000/svg">
<g clip-path="url(#clip0_7612_100)">
<mask id="mask0_7612_100" style="mask-type:luminance" maskUnits="userSpaceOnUse" x="0" y="0" width="6" height="9">
<path d="M0 9H6V0H0V9Z" fill="white"/>
</mask>
<g mask="url(#mask0_7612_100)">
<path fill-rule="evenodd" clip-rule="evenodd" d="M3.37515 1.82625L4.66515 3.22125C4.71708 3.27406 4.779 3.31601 4.84732 3.34464C4.91563 3.37328 4.98895 3.38802 5.06302 3.38802C5.13709 3.38802 5.21042 3.37328 5.27873 3.34464C5.34704 3.31601 5.40897 3.27406 5.4609 3.22125C5.56652 3.11381 5.62571 2.96917 5.62571 2.8185C5.62571 2.66783 5.56652 2.52319 5.4609 2.41575L3.40965 0.249749C3.33192 0.170424 3.23916 0.107407 3.13677 0.0643845C3.03439 0.0213623 2.92445 -0.000797272 2.8134 -0.000797272C2.70234 -0.000797272 2.5924 0.0213623 2.49002 0.0643845C2.38764 0.107407 2.29487 0.170424 2.21715 0.249749L0.165147 2.41575C0.0997615 2.48233 0.05158 2.56384 0.0247695 2.65323C-0.00204105 2.74261 -0.00667348 2.83718 0.0112728 2.92876C0.0292191 3.02034 0.0692039 3.10617 0.127769 3.17882C0.186334 3.25148 0.261717 3.30877 0.347397 3.34575C0.450216 3.38865 0.563523 3.39979 0.672728 3.37774C0.781933 3.35568 0.882036 3.30144 0.960147 3.222L2.25015 1.827V8.4375C2.25015 8.58668 2.30941 8.72976 2.4149 8.83525C2.52039 8.94074 2.66346 9 2.81265 9C2.96183 9 3.10491 8.94074 3.21039 8.83525C3.31588 8.72976 3.37515 8.58668 3.37515 8.4375V1.82625Z" fill="#636360"/>
</g>
</g>
<defs>
<clipPath id="clip0_7612_100">
<rect width="6" height="9" fill="white" transform="matrix(1 0 0 -1 0 9)"/>
</clipPath>
</defs>
</svg>
