<svg width="6" height="9" viewBox="0 0 6 9" fill="none" xmlns="http://www.w3.org/2000/svg">
<g clip-path="url(#clip0_7612_173)">
<mask id="mask0_7612_173" style="mask-type:luminance" maskUnits="userSpaceOnUse" x="0" y="0" width="6" height="9">
<path d="M0 0H6V9H0V0Z" fill="white"/>
</mask>
<g mask="url(#mask0_7612_173)">
<path fill-rule="evenodd" clip-rule="evenodd" d="M3.37515 7.17375L4.66515 5.77875C4.71708 5.72594 4.779 5.68399 4.84732 5.65536C4.91563 5.62672 4.98895 5.61198 5.06302 5.61198C5.13709 5.61198 5.21042 5.62672 5.27873 5.65536C5.34704 5.68399 5.40897 5.72594 5.4609 5.77875C5.56652 5.88619 5.62571 6.03083 5.62571 6.1815C5.62571 6.33217 5.56652 6.47681 5.4609 6.58425L3.40965 8.75025C3.33192 8.82958 3.23916 8.89259 3.13677 8.93562C3.03439 8.97864 2.92445 9.0008 2.8134 9.0008C2.70234 9.0008 2.5924 8.97864 2.49002 8.93562C2.38764 8.89259 2.29487 8.82958 2.21715 8.75025L0.165147 6.58425C0.0997615 6.51767 0.05158 6.43616 0.0247695 6.34677C-0.00204105 6.25739 -0.00667348 6.16282 0.0112728 6.07124C0.0292191 5.97966 0.0692039 5.89383 0.127769 5.82118C0.186334 5.74852 0.261717 5.69123 0.347397 5.65425C0.450216 5.61135 0.563523 5.60021 0.672728 5.62226C0.781933 5.64432 0.882036 5.69856 0.960147 5.778L2.25015 7.173V0.5625C2.25015 0.413316 2.30941 0.270242 2.4149 0.164752C2.52039 0.0592632 2.66346 0 2.81265 0C2.96183 0 3.10491 0.0592632 3.21039 0.164752C3.31588 0.270242 3.37515 0.413316 3.37515 0.5625V7.17375Z" fill="#636360"/>
</g>
</g>
<defs>
<clipPath id="clip0_7612_173">
<rect width="6" height="9" fill="white"/>
</clipPath>
</defs>
</svg>
