<svg width="200" height="200" viewBox="0 0 200 200" fill="none" xmlns="http://www.w3.org/2000/svg">
<path d="M176.475 128.424C177.552 129.046 177.556 130.054 176.486 130.676L102.836 173.486C101.767 174.108 100.026 174.108 98.9486 173.486L53.8366 147.435C52.7595 146.814 52.7518 145.806 53.825 145.18L127.471 102.37C128.541 101.748 130.282 101.748 131.363 102.37L176.475 128.424Z" fill="#FFD6BC" stroke="#1D1D1B" stroke-width="0.5" stroke-miterlimit="10"/>
<path d="M176.487 130.676L102.841 173.486C101.771 174.108 100.03 174.108 98.953 173.486L53.841 147.435C53.3005 147.123 53.0264 146.709 53.0302 146.3L53.0264 147.069C53.0264 147.478 53.2966 147.891 53.8371 148.204L98.9491 174.255C100.026 174.876 101.767 174.876 102.837 174.255L176.483 131.444C177.016 131.136 177.282 130.73 177.282 130.325L177.286 129.556C177.282 129.962 177.016 130.367 176.487 130.676Z" fill="white" stroke="#1D1D1B" stroke-width="0.5" stroke-miterlimit="10"/>
<path d="M93.3557 151.189V151.263C93.2862 151.263 93.2167 151.259 93.1472 151.259C92.4677 151.224 91.8384 151.039 91.2555 150.707C90.6416 150.351 90.2749 150.031 90.159 149.749L90.1475 149.722L90.271 149.706L90.2787 149.726L90.2942 149.76C90.4177 150.019 90.7652 150.317 91.3443 150.653C91.935 150.992 92.572 151.17 93.263 151.189C93.2978 151.189 93.3287 151.189 93.3557 151.189Z" fill="#1D1D1B" stroke="#1D1D1B" stroke-width="0.5" stroke-linejoin="round"/>
<path d="M85.7381 152.351L82.4565 154.259L82.4411 154.267L82.3716 154.228L82.387 154.22L85.6647 152.313L85.6763 152.316L85.7381 152.351Z" fill="#1D1D1B" stroke="#1D1D1B" stroke-width="0.5" stroke-linejoin="round"/>
<path d="M95.7287 148.775C96.2731 149.088 96.2769 149.602 95.7326 149.914L86.2083 155.448C85.6678 155.765 84.7837 155.765 84.2393 155.448L77.6221 151.629C77.0778 151.312 77.0739 150.802 77.6144 150.486L87.1387 144.952C87.683 144.635 88.5633 144.635 89.1115 144.952L95.7287 148.775ZM88.4822 154.077C88.4822 154.042 88.4783 154.008 88.4745 153.973L93.1459 151.258C93.2154 151.262 93.2849 151.262 93.3544 151.262V151.189C93.3235 151.189 93.2926 151.189 93.2617 151.189L95.5859 149.837C96.0491 149.567 96.0453 149.13 95.582 148.86L93.6671 147.756L93.7791 147.69L91.0997 146.145L90.9878 146.211L88.9648 145.041C88.4976 144.771 87.741 144.771 87.2777 145.041L80.1084 149.208C80.0466 149.204 79.981 149.204 79.9192 149.2L79.9115 149.273L79.9887 149.277L77.7534 150.575C77.2901 150.845 77.294 151.285 77.7572 151.552L79.6992 152.675L79.6297 152.718L79.7185 152.768L79.7725 152.737L79.8073 152.756L82.2704 154.162L82.2009 154.205L82.2897 154.255L82.3592 154.212L82.4325 154.27L84.3744 155.375C84.8377 155.641 85.5983 155.641 86.0616 155.375L88.3471 154.046V154.081H88.4822" fill="#1D1D1B"/>
<path d="M88.4822 154.077C88.4822 154.042 88.4783 154.008 88.4745 153.973L93.1459 151.258C93.2154 151.262 93.2849 151.262 93.3544 151.262V151.189C93.3235 151.189 93.2926 151.189 93.2617 151.189L95.5859 149.837C96.0491 149.567 96.0453 149.13 95.582 148.86L93.6671 147.756L93.7791 147.69L91.0997 146.145L90.9878 146.211L88.9648 145.041C88.4976 144.771 87.741 144.771 87.2777 145.041L80.1084 149.208C80.0466 149.204 79.981 149.204 79.9192 149.2L79.9115 149.273L79.9887 149.277L77.7534 150.575C77.2901 150.845 77.294 151.285 77.7572 151.552L79.6992 152.675L79.6297 152.718L79.7185 152.768L79.7725 152.737L79.8073 152.756L82.2704 154.162L82.2009 154.205L82.2897 154.255L82.3592 154.212L82.4325 154.27L84.3744 155.375C84.8377 155.641 85.5983 155.641 86.0616 155.375L88.3471 154.046V154.081H88.4822M95.7287 148.775C96.2731 149.088 96.2769 149.602 95.7326 149.914L86.2083 155.448C85.6678 155.765 84.7837 155.765 84.2393 155.448L77.6221 151.629C77.0778 151.312 77.0739 150.802 77.6144 150.486L87.1387 144.952C87.683 144.635 88.5633 144.635 89.1115 144.952L95.7287 148.775Z" stroke="#1D1D1B" stroke-width="0.5" stroke-linejoin="round"/>
<path d="M91.103 146.142L93.7824 147.687L93.6704 147.752L93.6434 147.768L90.2769 149.726L90.2691 149.706L90.1456 149.722L90.1572 149.749C89.6978 149.702 89.2036 149.521 88.6631 149.212C88.111 148.891 87.7443 148.567 87.5589 148.235L87.5474 148.212L90.9911 146.211L91.103 146.142ZM93.5816 147.702L93.6048 147.687L91.103 146.246L91.0799 146.258L91.0529 146.273L87.6902 148.227L87.7134 148.266C87.8987 148.567 88.2461 148.864 88.7519 149.154C89.2769 149.455 89.7557 149.629 90.1842 149.672L93.5816 147.702Z" fill="#1D1D1B" stroke="#1D1D1B" stroke-width="0.5" stroke-linejoin="round"/>
<path d="M91.099 146.3L87.717 148.265L87.6938 148.227L91.0565 146.273L91.099 146.3Z" fill="#1D1D1B" stroke="#1D1D1B" stroke-width="0.5" stroke-linejoin="round"/>
<path d="M93.7062 147.802L90.3203 149.771L90.2972 149.76L90.2817 149.725L93.6444 147.767L93.7062 147.802Z" fill="#1D1D1B" stroke="#1D1D1B" stroke-width="0.5" stroke-linejoin="round"/>
<path d="M83.2042 150.784L79.83 152.746L79.8146 152.753L79.7837 152.734L83.1618 150.768L83.1811 150.772L83.2042 150.784Z" fill="#1D1D1B" stroke="#1D1D1B" stroke-width="0.5" stroke-linejoin="round"/>
<path d="M82.166 149.741C82.7373 150.073 83.0809 150.39 83.1968 150.699L83.1582 150.691L83.1273 150.761L83.162 150.765L79.7801 152.73L79.726 152.761L79.6372 152.711L79.7067 152.668L83.0732 150.71L83.0616 150.683C82.9458 150.398 82.6138 150.1 82.0733 149.788C81.5212 149.471 80.8302 149.297 79.9885 149.27L79.9113 149.266L79.919 149.193C79.9847 149.193 80.0464 149.197 80.1082 149.201C80.9305 149.247 81.6177 149.425 82.166 149.741Z" fill="#1D1D1B" stroke="#1D1D1B" stroke-width="0.5" stroke-linejoin="round"/>
<path d="M82.3875 154.221L82.3682 154.209L85.6343 152.309L85.6652 152.313L82.3875 154.221Z" fill="#1D1D1B" stroke="#1D1D1B" stroke-width="0.5" stroke-linejoin="round"/>
<path d="M84.8304 151.277C85.34 151.571 85.6257 151.895 85.6759 152.239L85.6335 152.231L85.6026 152.301L85.6373 152.305L82.3712 154.205L82.3017 154.247L82.2129 154.197L82.2824 154.154L85.5562 152.251L85.5524 152.22C85.4945 151.899 85.2242 151.602 84.7455 151.328C84.2552 151.046 83.7379 150.86 83.1896 150.772L83.1703 150.768L83.1356 150.764L83.1665 150.694L83.2051 150.702C83.7726 150.787 84.3208 150.984 84.8304 151.277Z" fill="#1D1D1B" stroke="#1D1D1B" stroke-width="0.5" stroke-linejoin="round"/>
<path d="M87.6337 152.896C88.1472 153.193 88.429 153.552 88.4754 153.969C88.4792 154.004 88.4831 154.039 88.4831 154.074H88.3557V154.039C88.3364 153.61 88.0661 153.243 87.5488 152.946C87.0315 152.645 86.406 152.436 85.6841 152.313L85.6687 152.309L85.6378 152.305L85.603 152.301L85.6339 152.232L85.6764 152.239C86.4369 152.367 87.0894 152.583 87.6337 152.896Z" fill="#1D1D1B" stroke="#1D1D1B" stroke-width="0.5" stroke-linejoin="round"/>
<path d="M91.084 146.257L91.1033 146.246L93.605 147.686L93.5818 147.702L91.084 146.257Z" fill="#1D1D1B" stroke="#1D1D1B" stroke-width="0.5" stroke-linejoin="round"/>
<path d="M84.7992 147.385L81.9462 149.045L81.8535 148.991L84.7104 147.335L84.7992 147.385Z" fill="white" stroke="#1D1D1B" stroke-width="0.5" stroke-linejoin="round"/>
<path d="M91.6337 151.331L88.7806 152.992L88.688 152.938L91.5449 151.281L91.6337 151.331Z" fill="white" stroke="#1D1D1B" stroke-width="0.5" stroke-linejoin="round"/>
<path d="M84.7119 147.335L81.855 148.991L81.77 148.941L84.6231 147.281L84.7119 147.335Z" fill="#1D1D1B" stroke="#1D1D1B" stroke-width="0.5" stroke-linejoin="round"/>
<path d="M91.724 151.386L88.8671 153.042L88.7783 152.992L91.6314 151.332L91.724 151.386Z" fill="#1D1D1B" stroke="#1D1D1B" stroke-width="0.5" stroke-linejoin="round"/>
<path d="M161.459 133.672C161.263 134.41 160.676 135.12 159.695 135.692C157.232 137.124 153.225 137.124 150.746 135.692C148.268 134.259 148.256 131.938 150.715 130.51C151.696 129.938 152.92 129.598 154.194 129.478C153.896 130.598 154.495 131.78 155.989 132.645C157.483 133.51 159.529 133.85 161.459 133.672Z" fill="white" stroke="#1D1D1B" stroke-width="0.5"/>
<path d="M167.548 129.247L167.521 129.263L167.394 129.189L167.455 129.282L167.425 129.301L167.266 129.263L167.394 129.336L167.363 129.355L167.193 129.259L167.239 129.232L167.405 129.27L167.34 129.174L167.382 129.151L167.548 129.247Z" fill="#1D1D1B"/>
<path d="M167.181 129.285L167.123 129.319L167.274 129.404L167.235 129.42L167.096 129.339L167.042 129.37L167.015 129.35L167.154 129.269L167.181 129.285Z" fill="#1D1D1B"/>
<path d="M164.912 127.459C167.391 128.891 167.402 131.212 164.943 132.641C163.962 133.209 162.742 133.552 161.468 133.668C161.712 132.753 161.357 131.791 160.399 131.004C160.341 130.953 160.283 130.911 160.221 130.865L160.171 130.83L160.148 130.811L160.117 130.787L160.094 130.772L160.063 130.749L160.028 130.726L159.994 130.702L159.947 130.672C159.913 130.648 159.901 130.641 159.886 130.633L159.862 130.618L159.824 130.594C159.785 130.571 159.77 130.563 159.758 130.552C159.716 130.529 159.696 130.513 159.673 130.502L159.608 130.463C159.573 130.444 159.557 130.436 159.542 130.428C159.503 130.405 159.488 130.401 159.476 130.394L159.449 130.378L159.407 130.355C159.364 130.332 159.345 130.324 159.33 130.316L159.291 130.297L159.252 130.278L159.214 130.258L159.187 130.247L159.148 130.227L159.117 130.212L159.079 130.193C158.978 130.146 158.897 130.115 158.816 130.081C157.446 129.529 155.789 129.324 154.207 129.471C154.403 128.733 154.99 128.022 155.971 127.455C158.426 126.03 162.434 126.03 164.912 127.459Z" fill="white" stroke="#1D1D1B" stroke-width="0.5"/>
<path d="M159.669 130.506L159.735 130.545L159.754 130.556L159.796 130.583L159.82 130.599L159.858 130.622L159.881 130.637L159.92 130.66L159.943 130.676L159.99 130.707L160.024 130.73L160.059 130.753L160.09 130.776L160.113 130.792L160.144 130.815L160.167 130.834L160.198 130.857L160.217 130.873C160.279 130.919 160.337 130.962 160.391 131.008C161.348 131.803 161.708 132.761 161.464 133.676C159.53 133.854 157.488 133.51 155.994 132.649C154.5 131.788 153.901 130.603 154.199 129.483C155.781 129.336 157.438 129.541 158.804 130.093C158.889 130.128 158.966 130.158 159.048 130.193L159.071 130.205L159.109 130.224L159.14 130.24L159.179 130.259L159.206 130.27L159.244 130.29L159.283 130.309L159.322 130.328L159.376 130.355L159.403 130.367L159.445 130.39L159.472 130.406L159.515 130.429L159.542 130.444L159.584 130.467L159.603 130.479L159.669 130.506Z" fill="white" stroke="#1D1D1B" stroke-width="0.5"/>
<path d="M130.398 114.105C129.39 114.689 128 114.611 126.761 113.893L122.634 111.51L123.611 110.943L124.877 111.673L126.224 110.9L127.17 111.445L125.827 112.217L127.934 113.434C128.448 113.731 129.066 113.712 129.633 113.379C129.78 113.287 129.903 113.19 130.008 113.082L130.988 113.65C130.822 113.82 130.622 113.97 130.398 114.105Z" fill="#1D1D1B"/>
<path d="M128.807 112.159C127.39 111.34 127.378 110.108 128.78 109.294C130.181 108.479 132.312 108.479 133.729 109.297C135.142 110.112 135.146 111.344 133.745 112.159C132.343 112.974 130.22 112.974 128.807 112.159ZM132.71 109.892C131.853 109.398 130.59 109.386 129.772 109.861C128.953 110.336 128.98 111.07 129.83 111.56C130.675 112.051 131.934 112.058 132.752 111.583C133.559 111.116 133.54 110.375 132.71 109.892Z" fill="#1D1D1B"/>
<path d="M118.947 115.121L119.947 114.538L120.449 114.827C120.449 114.82 120.576 114.175 121.322 113.742C122.441 113.09 124.074 113.051 125.244 113.727L128.051 115.349L127.055 115.928L124.321 114.349C123.63 113.951 122.742 113.943 122.009 114.372C121.449 114.7 121.21 115.264 121.943 115.688L124.715 117.287L123.715 117.87L118.947 115.121Z" fill="#1D1D1B"/>
<path d="M115.905 119.658C114.489 118.84 114.473 117.608 115.878 116.793C117.28 115.978 119.411 115.982 120.828 116.801C122.241 117.615 122.248 118.843 120.843 119.662C119.438 120.473 117.318 120.473 115.905 119.658ZM119.809 117.395C118.951 116.901 117.693 116.889 116.871 117.364C116.052 117.839 116.075 118.573 116.928 119.063C117.774 119.554 119.033 119.562 119.855 119.083C120.658 118.616 120.639 117.874 119.809 117.395Z" fill="#1D1D1B"/>
<path d="M115.781 122.056L115.769 122.079C115.53 122.566 115.082 123.01 114.46 123.365C112.484 124.516 109.48 124.508 107.476 123.35C105.469 122.191 105.449 120.45 107.426 119.303C109.407 118.152 112.414 118.156 114.422 119.314C115.298 119.82 115.812 120.446 115.92 121.118L115.927 121.176L116.016 121.156C116.422 121.071 116.804 120.952 117.151 120.805L118.012 121.454C117.36 121.735 116.615 121.94 115.823 122.052L115.781 122.056ZM108.557 122.72C109.997 123.55 112.109 123.581 113.472 122.79C113.754 122.628 113.985 122.438 114.151 122.226L114.202 122.164H114.086C113.082 122.16 112.09 122.044 111.163 121.824L111.754 121.033C112.584 121.23 113.476 121.326 114.368 121.318H114.449L114.441 121.272C114.371 120.785 113.974 120.314 113.333 119.94C111.889 119.106 109.777 119.079 108.418 119.866C107.056 120.666 107.113 121.89 108.557 122.72Z" fill="#1D1D1B"/>
<path d="M189.821 45.7839L51.4005 126.546L48.0996 124.639L189.821 42.8761V45.7839Z" fill="#FFEADD" stroke="#1D1D1B" stroke-width="0.5" stroke-miterlimit="10" stroke-linejoin="round"/>
<path d="M189.821 42.8756L48.2187 124.654L35.6406 117.39L177.243 35.6157L189.821 42.8756Z" fill="#FFD6BC" stroke="#1D1D1B" stroke-width="0.5" stroke-miterlimit="10" stroke-linejoin="round"/>
<mask id="path-32-inside-1_7830_9" fill="white">
<path d="M50.3301 120.444L50.029 120.618L45.8672 118.212L46.1683 118.042L50.3301 120.444Z"/>
</mask>
<path d="M50.3301 120.444L50.029 120.618L45.8672 118.212L46.1683 118.042L50.3301 120.444Z" fill="#1D1D1B"/>
<path d="M50.3301 120.444L50.58 120.877C50.7348 120.788 50.8301 120.622 50.8301 120.444C50.8301 120.265 50.7348 120.1 50.5801 120.011L50.3301 120.444ZM50.029 120.618L49.7788 121.05C49.9335 121.14 50.1241 121.14 50.2789 121.051L50.029 120.618ZM45.8672 118.212L45.6215 117.776C45.4652 117.865 45.3681 118.03 45.3672 118.209C45.3663 118.389 45.4616 118.555 45.617 118.645L45.8672 118.212ZM46.1683 118.042L46.4183 117.609C46.2651 117.52 46.0766 117.52 45.9226 117.606L46.1683 118.042ZM50.0802 120.011L49.7791 120.185L50.2789 121.051L50.58 120.877L50.0802 120.011ZM50.2792 120.185L46.1174 117.779L45.617 118.645L49.7788 121.05L50.2792 120.185ZM46.1129 118.647L46.414 118.477L45.9226 117.606L45.6215 117.776L46.1129 118.647ZM45.9184 118.475L50.0802 120.877L50.5801 120.011L46.4183 117.609L45.9184 118.475Z" fill="#1D1D1B" mask="url(#path-32-inside-1_7830_9)"/>
<mask id="path-34-inside-2_7830_9" fill="white">
<path d="M56.3287 116.979L56.0275 117.152L51.8657 114.747L52.1669 114.573L56.3287 116.979Z"/>
</mask>
<path d="M56.3287 116.979L56.0275 117.152L51.8657 114.747L52.1669 114.573L56.3287 116.979Z" fill="#1D1D1B"/>
<path d="M56.3287 116.979L56.5786 117.412C56.7333 117.322 56.8286 117.157 56.8287 116.979C56.8287 116.8 56.7335 116.635 56.5789 116.546L56.3287 116.979ZM56.0275 117.152L55.7773 117.585C55.932 117.675 56.1227 117.675 56.2774 117.585L56.0275 117.152ZM51.8657 114.747L51.6158 114.313C51.4611 114.403 51.3658 114.568 51.3657 114.746C51.3657 114.925 51.4609 115.09 51.6155 115.179L51.8657 114.747ZM52.1669 114.573L52.4171 114.14C52.2624 114.05 52.0717 114.05 51.9169 114.14L52.1669 114.573ZM56.0788 116.546L55.7776 116.719L56.2774 117.585L56.5786 117.412L56.0788 116.546ZM56.2778 116.719L52.116 114.314L51.6155 115.179L55.7773 117.585L56.2778 116.719ZM52.1156 115.18L52.4168 115.006L51.9169 114.14L51.6158 114.313L52.1156 115.18ZM51.9166 115.006L56.0784 117.411L56.5789 116.546L52.4171 114.14L51.9166 115.006Z" fill="#1D1D1B" mask="url(#path-34-inside-2_7830_9)"/>
<mask id="path-36-inside-3_7830_9" fill="white">
<path d="M51.5305 119.751L51.2293 119.925L49.1484 118.72L49.4457 118.546L51.5305 119.751Z"/>
</mask>
<path d="M51.5305 119.751L51.2293 119.925L49.1484 118.72L49.4457 118.546L51.5305 119.751Z" fill="#1D1D1B"/>
<path d="M51.5305 119.751L51.7804 120.184C51.9351 120.095 52.0304 119.93 52.0305 119.751C52.0305 119.572 51.9353 119.407 51.7807 119.318L51.5305 119.751ZM51.2293 119.925L50.9788 120.357C51.1336 120.447 51.3244 120.447 51.4793 120.358L51.2293 119.925ZM49.1484 118.72L48.8961 118.288C48.7424 118.378 48.6481 118.543 48.6484 118.721C48.6488 118.899 48.7438 119.063 48.8979 119.152L49.1484 118.72ZM49.4457 118.546L49.6959 118.113C49.5403 118.023 49.3485 118.024 49.1934 118.114L49.4457 118.546ZM51.2806 119.318L50.9794 119.491L51.4793 120.358L51.7804 120.184L51.2806 119.318ZM51.4799 119.492L49.399 118.287L48.8979 119.152L50.9788 120.357L51.4799 119.492ZM49.4008 119.151L49.698 118.978L49.1934 118.114L48.8961 118.288L49.4008 119.151ZM49.1955 118.979L51.2803 120.184L51.7807 119.318L49.6959 118.113L49.1955 118.979Z" fill="#1D1D1B" mask="url(#path-36-inside-3_7830_9)"/>
<mask id="path-38-inside-4_7830_9" fill="white">
<path d="M53.9274 118.365L53.6302 118.538L51.5454 117.334L51.8465 117.16L53.9274 118.365Z"/>
</mask>
<path d="M53.9274 118.365L53.6302 118.538L51.5454 117.334L51.8465 117.16L53.9274 118.365Z" fill="#1D1D1B"/>
<path d="M53.9274 118.365L54.1798 118.796C54.3335 118.706 54.4278 118.542 54.4274 118.364C54.4271 118.186 54.3321 118.021 54.178 117.932L53.9274 118.365ZM53.6302 118.538L53.38 118.971C53.5356 119.061 53.7274 119.061 53.8825 118.97L53.6302 118.538ZM51.5454 117.334L51.2955 116.901C51.1408 116.99 51.0455 117.155 51.0454 117.333C51.0454 117.512 51.1406 117.677 51.2952 117.767L51.5454 117.334ZM51.8465 117.16L52.0971 116.727C51.9423 116.638 51.7515 116.637 51.5966 116.727L51.8465 117.16ZM53.6751 117.933L53.3778 118.107L53.8825 118.97L54.1798 118.796L53.6751 117.933ZM53.8804 118.106L51.7956 116.901L51.2952 117.767L53.38 118.971L53.8804 118.106ZM51.7953 117.767L52.0964 117.593L51.5966 116.727L51.2955 116.901L51.7953 117.767ZM51.596 117.593L53.6769 118.797L54.178 117.932L52.0971 116.727L51.596 117.593Z" fill="#1D1D1B" mask="url(#path-38-inside-4_7830_9)"/>
<mask id="path-40-inside-5_7830_9" fill="white">
<path d="M62.3267 113.514L62.0256 113.688L57.8638 111.286L58.1649 111.113L62.3267 113.514Z"/>
</mask>
<path d="M62.3267 113.514L62.0256 113.688L57.8638 111.286L58.1649 111.113L62.3267 113.514Z" fill="#1D1D1B"/>
<path d="M62.3267 113.514L62.5766 113.948C62.7314 113.858 62.8267 113.693 62.8267 113.514C62.8267 113.336 62.7314 113.171 62.5766 113.081L62.3267 113.514ZM62.0256 113.688L61.7756 114.121C61.9303 114.211 62.1208 114.211 62.2755 114.121L62.0256 113.688ZM57.8638 111.286L57.6139 110.853C57.4591 110.943 57.3638 111.108 57.3638 111.286C57.3638 111.465 57.4591 111.63 57.6138 111.719L57.8638 111.286ZM58.1649 111.113L58.4148 110.679C58.2602 110.59 58.0697 110.59 57.915 110.679L58.1649 111.113ZM62.0768 113.081L61.7757 113.255L62.2755 114.121L62.5766 113.948L62.0768 113.081ZM62.2755 113.255L58.1137 110.853L57.6138 111.719L61.7756 114.121L62.2755 113.255ZM58.1137 111.719L58.4148 111.546L57.915 110.679L57.6139 110.853L58.1137 111.719ZM57.915 111.546L62.0768 113.948L62.5766 113.081L58.4148 110.679L57.915 111.546Z" fill="#1D1D1B" mask="url(#path-40-inside-5_7830_9)"/>
<mask id="path-42-inside-6_7830_9" fill="white">
<path d="M57.5285 116.285L57.2274 116.459L55.1465 115.258L55.4476 115.084L57.5285 116.285Z"/>
</mask>
<path d="M57.5285 116.285L57.2274 116.459L55.1465 115.258L55.4476 115.084L57.5285 116.285Z" fill="#1D1D1B"/>
<path d="M57.5285 116.285L57.7784 116.718C57.9332 116.629 58.0285 116.464 58.0285 116.285C58.0285 116.106 57.9332 115.941 57.7785 115.852L57.5285 116.285ZM57.2274 116.459L56.9775 116.892C57.1321 116.981 57.3226 116.981 57.4773 116.892L57.2274 116.459ZM55.1465 115.258L54.8966 114.825C54.7418 114.914 54.6465 115.079 54.6465 115.258C54.6465 115.437 54.7418 115.602 54.8966 115.691L55.1465 115.258ZM55.4476 115.084L55.6975 114.651C55.5429 114.562 55.3524 114.562 55.1977 114.651L55.4476 115.084ZM57.2786 115.852L56.9775 116.026L57.4773 116.892L57.7784 116.718L57.2786 115.852ZM57.4773 116.026L55.3964 114.825L54.8966 115.691L56.9775 116.892L57.4773 116.026ZM55.3964 115.691L55.6975 115.517L55.1977 114.651L54.8966 114.825L55.3964 115.691ZM55.1977 115.517L57.2786 116.718L57.7785 115.852L55.6975 114.651L55.1977 115.517Z" fill="#1D1D1B" mask="url(#path-42-inside-6_7830_9)"/>
<mask id="path-44-inside-7_7830_9" fill="white">
<path d="M59.927 114.901L59.6297 115.074L57.5488 113.873L57.8461 113.7L59.927 114.901Z"/>
</mask>
<path d="M59.927 114.901L59.6297 115.074L57.5488 113.873L57.8461 113.7L59.927 114.901Z" fill="#1D1D1B"/>
<path d="M59.927 114.901L60.1793 115.332C60.3331 115.242 60.4275 115.077 60.427 114.899C60.4265 114.721 60.3312 114.557 60.1769 114.468L59.927 114.901ZM59.6297 115.074L59.3798 115.507C59.5353 115.597 59.727 115.597 59.8821 115.506L59.6297 115.074ZM57.5488 113.873L57.2965 113.442C57.1427 113.532 57.0483 113.697 57.0488 113.875C57.0493 114.053 57.1446 114.217 57.2989 114.306L57.5488 113.873ZM57.8461 113.7L58.096 113.267C57.9405 113.177 57.7488 113.177 57.5938 113.268L57.8461 113.7ZM59.6747 114.469L59.3774 114.643L59.8821 115.506L60.1793 115.332L59.6747 114.469ZM59.8797 114.641L57.7988 113.44L57.2989 114.306L59.3798 115.507L59.8797 114.641ZM57.8012 114.305L58.0984 114.131L57.5938 113.268L57.2965 113.442L57.8012 114.305ZM57.5962 114.133L59.6771 115.334L60.1769 114.468L58.096 113.267L57.5962 114.133Z" fill="#1D1D1B" mask="url(#path-44-inside-7_7830_9)"/>
<mask id="path-46-inside-8_7830_9" fill="white">
<path d="M68.3277 110.047L68.0304 110.221L63.8647 107.819L64.1659 107.645L68.3277 110.047Z"/>
</mask>
<path d="M68.3277 110.047L68.0304 110.221L63.8647 107.819L64.1659 107.645L68.3277 110.047Z" fill="#1D1D1B"/>
<path d="M68.3277 110.047L68.58 110.479C68.7338 110.389 68.8282 110.224 68.8277 110.046C68.8272 109.867 68.7319 109.703 68.5776 109.614L68.3277 110.047ZM68.0304 110.221L67.7807 110.654C67.9362 110.744 68.1278 110.743 68.2827 110.652L68.0304 110.221ZM63.8647 107.819L63.6148 107.386C63.4601 107.475 63.3647 107.64 63.3647 107.819C63.3648 107.998 63.4602 108.163 63.615 108.252L63.8647 107.819ZM64.1659 107.645L64.4158 107.212C64.2612 107.123 64.0706 107.123 63.916 107.212L64.1659 107.645ZM68.0754 109.615L67.7781 109.789L68.2827 110.652L68.58 110.479L68.0754 109.615ZM68.2802 109.788L64.1145 107.386L63.615 108.252L67.7807 110.654L68.2802 109.788ZM64.1147 108.252L64.4158 108.078L63.916 107.212L63.6148 107.386L64.1147 108.252ZM63.9159 108.078L68.0778 110.48L68.5776 109.614L64.4158 107.212L63.9159 108.078Z" fill="#1D1D1B" mask="url(#path-46-inside-8_7830_9)"/>
<mask id="path-48-inside-9_7830_9" fill="white">
<path d="M63.528 112.819L63.2269 112.993L61.146 111.792L61.4471 111.618L63.528 112.819Z"/>
</mask>
<path d="M63.528 112.819L63.2269 112.993L61.146 111.792L61.4471 111.618L63.528 112.819Z" fill="#1D1D1B"/>
<path d="M63.528 112.819L63.7779 113.252C63.9327 113.163 64.028 112.998 64.028 112.819C64.028 112.64 63.9327 112.475 63.778 112.386L63.528 112.819ZM63.2269 112.993L62.977 113.426C63.1316 113.515 63.3221 113.515 63.4768 113.426L63.2269 112.993ZM61.146 111.792L60.8961 111.359C60.7413 111.448 60.646 111.613 60.646 111.792C60.646 111.971 60.7413 112.136 60.8961 112.225L61.146 111.792ZM61.4471 111.618L61.6971 111.185C61.5424 111.096 61.3519 111.096 61.1972 111.185L61.4471 111.618ZM63.2781 112.386L62.977 112.56L63.4768 113.426L63.7779 113.252L63.2781 112.386ZM63.4768 112.56L61.3959 111.359L60.8961 112.225L62.977 113.426L63.4768 112.56ZM61.3959 112.225L61.697 112.051L61.1972 111.185L60.8961 111.359L61.3959 112.225ZM61.1972 112.051L63.2781 113.252L63.778 112.386L61.6971 111.185L61.1972 112.051Z" fill="#1D1D1B" mask="url(#path-48-inside-9_7830_9)"/>
<mask id="path-50-inside-10_7830_9" fill="white">
<path d="M65.9284 111.433L65.6273 111.607L63.5464 110.406L63.8437 110.232L65.9284 111.433Z"/>
</mask>
<path d="M65.9284 111.433L65.6273 111.607L63.5464 110.406L63.8437 110.232L65.9284 111.433Z" fill="#1D1D1B"/>
<path d="M65.9284 111.433L66.1783 111.866C66.3331 111.777 66.4285 111.612 66.4284 111.433C66.4284 111.254 66.3329 111.089 66.178 111L65.9284 111.433ZM65.6273 111.607L65.3774 112.04C65.532 112.129 65.7225 112.129 65.8772 112.04L65.6273 111.607ZM63.5464 110.406L63.2941 109.974C63.1402 110.064 63.0459 110.229 63.0464 110.407C63.0469 110.586 63.1421 110.75 63.2965 110.839L63.5464 110.406ZM63.8437 110.232L64.0932 109.799C63.9378 109.709 63.7462 109.71 63.5913 109.801L63.8437 110.232ZM65.6785 111L65.3774 111.174L65.8772 112.04L66.1783 111.866L65.6785 111ZM65.8772 111.174L63.7963 109.973L63.2965 110.839L65.3774 112.04L65.8772 111.174ZM63.7987 110.838L64.096 110.664L63.5913 109.801L63.2941 109.974L63.7987 110.838ZM63.5941 110.665L65.6788 111.866L66.178 111L64.0932 109.799L63.5941 110.665Z" fill="#1D1D1B" mask="url(#path-50-inside-10_7830_9)"/>
<mask id="path-52-inside-11_7830_9" fill="white">
<path d="M74.3292 106.585L74.0319 106.759L69.8662 104.353L70.1673 104.179L74.3292 106.585Z"/>
</mask>
<path d="M74.3292 106.585L74.0319 106.759L69.8662 104.353L70.1673 104.179L74.3292 106.585Z" fill="#1D1D1B"/>
<path d="M74.3292 106.585L74.5815 107.016C74.7352 106.927 74.8296 106.762 74.8292 106.584C74.8287 106.405 74.7336 106.241 74.5794 106.152L74.3292 106.585ZM74.0319 106.759L73.7818 107.192C73.9374 107.281 74.1291 107.281 74.2842 107.19L74.0319 106.759ZM69.8662 104.353L69.6163 103.92C69.4616 104.009 69.3662 104.174 69.3662 104.353C69.3662 104.531 69.4615 104.696 69.6162 104.786L69.8662 104.353ZM70.1673 104.179L70.4176 103.746C70.2629 103.657 70.0722 103.657 69.9174 103.746L70.1673 104.179ZM74.0768 106.153L73.7796 106.327L74.2842 107.19L74.5815 107.016L74.0768 106.153ZM74.2819 106.326L70.1163 103.92L69.6162 104.786L73.7818 107.192L74.2819 106.326ZM70.1161 104.786L70.4173 104.612L69.9174 103.746L69.6163 103.92L70.1161 104.786ZM69.9171 104.612L74.0789 107.018L74.5794 106.152L70.4176 103.746L69.9171 104.612Z" fill="#1D1D1B" mask="url(#path-52-inside-11_7830_9)"/>
<mask id="path-54-inside-12_7830_9" fill="white">
<path d="M69.531 109.356L69.2298 109.53L67.1489 108.325L67.4501 108.151L69.531 109.356Z"/>
</mask>
<path d="M69.531 109.356L69.2298 109.53L67.1489 108.325L67.4501 108.151L69.531 109.356Z" fill="#1D1D1B"/>
<path d="M69.531 109.356L69.7809 109.789C69.9355 109.7 70.0308 109.535 70.031 109.356C70.0311 109.178 69.936 109.013 69.7815 108.923L69.531 109.356ZM69.2298 109.53L68.9793 109.963C69.134 110.052 69.3249 110.052 69.4797 109.963L69.2298 109.53ZM67.1489 108.325L66.899 107.892C66.7444 107.981 66.6491 108.146 66.6489 108.325C66.6488 108.503 66.7439 108.668 66.8984 108.758L67.1489 108.325ZM67.4501 108.151L67.7006 107.719C67.5458 107.629 67.355 107.629 67.2002 107.718L67.4501 108.151ZM69.2811 108.923L68.9799 109.097L69.4797 109.963L69.7809 109.789L69.2811 108.923ZM69.4804 109.097L67.3995 107.892L66.8984 108.758L68.9793 109.963L69.4804 109.097ZM67.3988 108.758L67.7 108.584L67.2002 107.718L66.899 107.892L67.3988 108.758ZM67.1995 108.584L69.2804 109.789L69.7815 108.923L67.7006 107.719L67.1995 108.584Z" fill="#1D1D1B" mask="url(#path-54-inside-12_7830_9)"/>
<mask id="path-56-inside-13_7830_9" fill="white">
<path d="M71.9299 107.971L71.6288 108.145L69.5479 106.94L69.849 106.77L71.9299 107.971Z"/>
</mask>
<path d="M71.9299 107.971L71.6288 108.145L69.5479 106.94L69.849 106.77L71.9299 107.971Z" fill="#1D1D1B"/>
<path d="M71.9299 107.971L72.1798 108.404C72.3345 108.315 72.4299 108.15 72.4299 107.971C72.4299 107.792 72.3346 107.627 72.1798 107.538L71.9299 107.971ZM71.6288 108.145L71.3782 108.577C71.533 108.667 71.7238 108.667 71.8787 108.578L71.6288 108.145ZM69.5479 106.94L69.3021 106.504C69.1459 106.593 69.0489 106.758 69.0479 106.937C69.0469 107.116 69.1421 107.283 69.2973 107.373L69.5479 106.94ZM69.849 106.77L70.0989 106.337C69.9458 106.248 69.7573 106.248 69.6033 106.334L69.849 106.77ZM71.68 107.538L71.3788 107.712L71.8787 108.578L72.1798 108.404L71.68 107.538ZM71.8793 107.712L69.7984 106.507L69.2973 107.373L71.3782 108.577L71.8793 107.712ZM69.7936 107.375L70.0947 107.205L69.6033 106.334L69.3021 106.504L69.7936 107.375ZM69.5991 107.203L71.68 108.404L72.1798 107.538L70.0989 106.337L69.5991 107.203Z" fill="#1D1D1B" mask="url(#path-56-inside-13_7830_9)"/>
<mask id="path-58-inside-14_7830_9" fill="white">
<path d="M80.3326 103.117L80.0314 103.287L75.8696 100.885L76.1669 100.711L80.3326 103.117Z"/>
</mask>
<path d="M80.3326 103.117L80.0314 103.287L75.8696 100.885L76.1669 100.711L80.3326 103.117Z" fill="#1D1D1B"/>
<path d="M80.3326 103.117L80.5783 103.553C80.7346 103.465 80.8317 103.299 80.8326 103.12C80.8335 102.94 80.7381 102.774 80.5826 102.684L80.3326 103.117ZM80.0314 103.287L79.7815 103.72C79.9347 103.809 80.1231 103.81 80.2771 103.723L80.0314 103.287ZM75.8696 100.885L75.6173 100.454C75.4635 100.544 75.3691 100.708 75.3696 100.887C75.3701 101.065 75.4654 101.229 75.6197 101.318L75.8696 100.885ZM76.1669 100.711L76.417 100.279C76.2614 100.189 76.0696 100.189 75.9146 100.28L76.1669 100.711ZM80.0869 102.682L79.7857 102.852L80.2771 103.723L80.5783 103.553L80.0869 102.682ZM80.2814 102.854L76.1196 100.452L75.6197 101.318L79.7815 103.72L80.2814 102.854ZM76.122 101.317L76.4192 101.143L75.9146 100.28L75.6173 100.454L76.122 101.317ZM75.9168 101.144L80.0825 103.55L80.5826 102.684L76.417 100.279L75.9168 101.144Z" fill="#1D1D1B" mask="url(#path-58-inside-14_7830_9)"/>
<mask id="path-60-inside-15_7830_9" fill="white">
<path d="M75.5266 105.886L75.2293 106.059L73.1445 104.858L73.4457 104.685L75.5266 105.886Z"/>
</mask>
<path d="M75.5266 105.886L75.2293 106.059L73.1445 104.858L73.4457 104.685L75.5266 105.886Z" fill="#1D1D1B"/>
<path d="M75.5266 105.886L75.7789 106.317C75.9327 106.227 76.0271 106.062 76.0266 105.884C76.0261 105.706 75.9308 105.542 75.7765 105.453L75.5266 105.886ZM75.2293 106.059L74.9797 106.493C75.1352 106.582 75.3267 106.582 75.4816 106.491L75.2293 106.059ZM73.1445 104.858L72.8946 104.425C72.7398 104.515 72.6445 104.68 72.6445 104.859C72.6446 105.037 72.7401 105.202 72.8949 105.292L73.1445 104.858ZM73.4457 104.685L73.6956 104.252C73.5409 104.162 73.3504 104.162 73.1958 104.252L73.4457 104.685ZM75.2742 105.454L74.977 105.628L75.4816 106.491L75.7789 106.317L75.2742 105.454ZM75.4789 105.626L73.3941 104.425L72.8949 105.292L74.9797 106.493L75.4789 105.626ZM73.3944 105.291L73.6956 105.118L73.1958 104.252L72.8946 104.425L73.3944 105.291ZM73.1957 105.118L75.2766 106.319L75.7765 105.453L73.6956 104.252L73.1957 105.118Z" fill="#1D1D1B" mask="url(#path-60-inside-15_7830_9)"/>
<mask id="path-62-inside-16_7830_9" fill="white">
<path d="M77.9289 104.501L77.6278 104.675L75.5469 103.474L75.848 103.3L77.9289 104.501Z"/>
</mask>
<path d="M77.9289 104.501L77.6278 104.675L75.5469 103.474L75.848 103.3L77.9289 104.501Z" fill="#1D1D1B"/>
<path d="M77.9289 104.501L78.1788 104.934C78.3336 104.845 78.4289 104.68 78.4289 104.501C78.4289 104.322 78.3336 104.157 78.1788 104.068L77.9289 104.501ZM77.6278 104.675L77.3779 105.108C77.5325 105.197 77.723 105.197 77.8777 105.108L77.6278 104.675ZM75.5469 103.474L75.297 103.041C75.1422 103.13 75.0469 103.295 75.0469 103.474C75.0469 103.653 75.1422 103.818 75.2969 103.907L75.5469 103.474ZM75.848 103.3L76.0979 102.867C75.9433 102.778 75.7528 102.778 75.5981 102.867L75.848 103.3ZM77.679 104.068L77.3779 104.242L77.8777 105.108L78.1788 104.934L77.679 104.068ZM77.8777 104.242L75.7968 103.041L75.2969 103.907L77.3779 105.108L77.8777 104.242ZM75.7968 103.907L76.0979 103.733L75.5981 102.867L75.297 103.041L75.7968 103.907ZM75.5981 103.733L77.679 104.934L78.1788 104.068L76.0979 102.867L75.5981 103.733Z" fill="#1D1D1B" mask="url(#path-62-inside-16_7830_9)"/>
<mask id="path-64-inside-17_7830_9" fill="white">
<path d="M86.3292 99.6513L86.028 99.825L81.8662 97.4231L82.1635 97.2493L86.3292 99.6513Z"/>
</mask>
<path d="M86.3292 99.6513L86.028 99.825L81.8662 97.4231L82.1635 97.2493L86.3292 99.6513Z" fill="#1D1D1B"/>
<path d="M86.3292 99.6513L86.5791 100.084C86.7338 99.995 86.8292 99.8299 86.8292 99.6512C86.8291 99.4725 86.7337 99.3074 86.5789 99.2181L86.3292 99.6513ZM86.028 99.825L85.7781 100.258C85.9327 100.347 86.1233 100.347 86.2779 100.258L86.028 99.825ZM81.8662 97.4231L81.6139 96.9914C81.4601 97.0814 81.3657 97.2463 81.3662 97.4245C81.3667 97.6027 81.462 97.7671 81.6163 97.8562L81.8662 97.4231ZM82.1635 97.2493L82.4132 96.8162C82.2577 96.7265 82.0661 96.7271 81.9112 96.8177L82.1635 97.2493ZM86.0792 99.2182L85.7781 99.392L86.2779 100.258L86.5791 100.084L86.0792 99.2182ZM86.278 99.392L82.1161 96.99L81.6163 97.8562L85.7781 100.258L86.278 99.392ZM82.1185 97.8548L82.4158 97.681L81.9112 96.8177L81.6139 96.9914L82.1185 97.8548ZM81.9137 97.6825L86.0794 100.084L86.5789 99.2181L82.4132 96.8162L81.9137 97.6825Z" fill="#1D1D1B" mask="url(#path-64-inside-17_7830_9)"/>
<mask id="path-66-inside-18_7830_9" fill="white">
<path d="M81.5271 102.424L81.2298 102.597L79.1489 101.396L79.4462 101.223L81.5271 102.424Z"/>
</mask>
<path d="M81.5271 102.424L81.2298 102.597L79.1489 101.396L79.4462 101.223L81.5271 102.424Z" fill="#1D1D1B"/>
<path d="M81.5271 102.424L81.7794 102.855C81.9333 102.765 82.0276 102.6 82.0271 102.422C82.0266 102.244 81.9314 102.08 81.777 101.991L81.5271 102.424ZM81.2298 102.597L80.9799 103.03C81.1354 103.12 81.3271 103.12 81.4822 103.029L81.2298 102.597ZM79.1489 101.396L78.8966 100.965C78.7428 101.055 78.6484 101.22 78.6489 101.398C78.6494 101.576 78.7447 101.74 78.899 101.829L79.1489 101.396ZM79.4462 101.223L79.6961 100.79C79.5406 100.7 79.3489 100.7 79.1939 100.791L79.4462 101.223ZM81.2748 101.992L80.9775 102.166L81.4822 103.029L81.7794 102.855L81.2748 101.992ZM81.4798 102.164L79.3989 100.963L78.899 101.829L80.9799 103.03L81.4798 102.164ZM79.4013 101.828L79.6985 101.654L79.1939 100.791L78.8966 100.965L79.4013 101.828ZM79.1963 101.656L81.2772 102.857L81.777 101.991L79.6961 100.79L79.1963 101.656Z" fill="#1D1D1B" mask="url(#path-66-inside-18_7830_9)"/>
<mask id="path-68-inside-19_7830_9" fill="white">
<path d="M83.9265 101.037L83.6253 101.211L81.5444 100.01L81.8456 99.8364L83.9265 101.037Z"/>
</mask>
<path d="M83.9265 101.037L83.6253 101.211L81.5444 100.01L81.8456 99.8364L83.9265 101.037Z" fill="#1D1D1B"/>
<path d="M83.9265 101.037L84.1764 101.47C84.3311 101.381 84.4265 101.216 84.4265 101.037C84.4265 100.859 84.3312 100.694 84.1764 100.604L83.9265 101.037ZM83.6253 101.211L83.3754 101.644C83.5301 101.733 83.7206 101.733 83.8753 101.644L83.6253 101.211ZM81.5444 100.01L81.2945 99.5771C81.1398 99.6664 81.0444 99.8315 81.0444 100.01C81.0444 100.189 81.1398 100.354 81.2945 100.443L81.5444 100.01ZM81.8456 99.8364L82.0955 99.4034C81.9408 99.3141 81.7503 99.3141 81.5957 99.4034L81.8456 99.8364ZM83.6766 100.604L83.3754 100.778L83.8753 101.644L84.1764 101.47L83.6766 100.604ZM83.8753 100.778L81.7944 99.5771L81.2945 100.443L83.3754 101.644L83.8753 100.778ZM81.7943 100.443L82.0955 100.269L81.5957 99.4034L81.2945 99.5771L81.7943 100.443ZM81.5956 100.269L83.6766 101.47L84.1764 100.604L82.0955 99.4034L81.5956 100.269Z" fill="#1D1D1B" mask="url(#path-68-inside-19_7830_9)"/>
<mask id="path-70-inside-20_7830_9" fill="white">
<path d="M92.3311 96.1864L92.03 96.3602L87.8682 93.9544L88.1693 93.7806L92.3311 96.1864Z"/>
</mask>
<path d="M92.3311 96.1864L92.03 96.3602L87.8682 93.9544L88.1693 93.7806L92.3311 96.1864Z" fill="#1D1D1B"/>
<path d="M92.3311 96.1864L92.581 96.6194C92.7357 96.5302 92.831 96.3652 92.8311 96.1866C92.8312 96.008 92.736 95.8429 92.5813 95.7535L92.3311 96.1864ZM92.03 96.3602L91.7797 96.793C91.9344 96.8825 92.1251 96.8825 92.2799 96.7932L92.03 96.3602ZM87.8682 93.9544L87.6183 93.5213C87.4636 93.6106 87.3682 93.7756 87.3682 93.9542C87.3681 94.1328 87.4633 94.2978 87.6179 94.3872L87.8682 93.9544ZM88.1693 93.7806L88.4195 93.3477C88.2648 93.2583 88.0742 93.2582 87.9194 93.3475L88.1693 93.7806ZM92.0812 95.7533L91.7801 95.9271L92.2799 96.7932L92.581 96.6194L92.0812 95.7533ZM92.2802 95.9273L88.1184 93.5215L87.6179 94.3872L91.7797 96.793L92.2802 95.9273ZM88.1181 94.3874L88.4192 94.2136L87.9194 93.3475L87.6183 93.5213L88.1181 94.3874ZM87.9191 94.2135L92.0809 96.6193L92.5813 95.7535L88.4195 93.3477L87.9191 94.2135Z" fill="#1D1D1B" mask="url(#path-70-inside-20_7830_9)"/>
<mask id="path-72-inside-21_7830_9" fill="white">
<path d="M87.5329 98.9595L87.2318 99.1333L85.1509 97.9285L85.4482 97.7585L87.5329 98.9595Z"/>
</mask>
<path d="M87.5329 98.9595L87.2318 99.1333L85.1509 97.9285L85.4482 97.7585L87.5329 98.9595Z" fill="#1D1D1B"/>
<path d="M87.5329 98.9595L87.7828 99.3926C87.9376 99.3032 88.033 99.1381 88.0329 98.9593C88.0328 98.7806 87.9374 98.6155 87.7825 98.5263L87.5329 98.9595ZM87.2318 99.1333L86.9812 99.566C87.136 99.6556 87.3268 99.6557 87.4817 99.5664L87.2318 99.1333ZM85.1509 97.9285L84.9028 97.4944C84.7474 97.5831 84.6514 97.7482 84.6509 97.9271C84.6504 98.106 84.7455 98.2715 84.9003 98.3612L85.1509 97.9285ZM85.4482 97.7585L85.6977 97.3253C85.5438 97.2366 85.3543 97.2363 85.2 97.3245L85.4482 97.7585ZM87.283 98.5265L86.9819 98.7002L87.4817 99.5664L87.7828 99.3926L87.283 98.5265ZM87.4823 98.7006L85.4014 97.4958L84.9003 98.3612L86.9812 99.566L87.4823 98.7006ZM85.399 98.3626L85.6963 98.1926L85.2 97.3245L84.9028 97.4944L85.399 98.3626ZM85.1986 98.1918L87.2833 99.3928L87.7825 98.5263L85.6977 97.3253L85.1986 98.1918Z" fill="#1D1D1B" mask="url(#path-72-inside-21_7830_9)"/>
<mask id="path-74-inside-22_7830_9" fill="white">
<path d="M89.9299 97.5743L89.6288 97.748L87.5479 96.5432L87.849 96.3733L89.9299 97.5743Z"/>
</mask>
<path d="M89.9299 97.5743L89.6288 97.748L87.5479 96.5432L87.849 96.3733L89.9299 97.5743Z" fill="#1D1D1B"/>
<path d="M89.9299 97.5743L90.1798 98.0073C90.3345 97.918 90.4299 97.7529 90.4299 97.5743C90.4299 97.3956 90.3346 97.2305 90.1798 97.1412L89.9299 97.5743ZM89.6288 97.748L89.3782 98.1807C89.533 98.2703 89.7238 98.2705 89.8787 98.1811L89.6288 97.748ZM87.5479 96.5432L87.3021 96.1077C87.1459 96.1959 87.0489 96.361 87.0479 96.5404C87.0469 96.7198 87.1421 96.886 87.2973 96.9759L87.5479 96.5432ZM87.849 96.3733L88.0989 95.9402C87.9458 95.8518 87.7573 95.8509 87.6033 95.9378L87.849 96.3733ZM89.68 97.1412L89.3789 97.315L89.8787 98.1811L90.1798 98.0073L89.68 97.1412ZM89.8793 97.3153L87.7984 96.1105L87.2973 96.9759L89.3782 98.1807L89.8793 97.3153ZM87.7936 96.9787L88.0947 96.8088L87.6033 95.9378L87.3021 96.1077L87.7936 96.9787ZM87.5991 96.8063L89.68 98.0073L90.1798 97.1412L88.0989 95.9402L87.5991 96.8063Z" fill="#1D1D1B" mask="url(#path-74-inside-22_7830_9)"/>
<mask id="path-76-inside-23_7830_9" fill="white">
<path d="M98.3277 92.7248L98.0265 92.8947L93.8647 90.4928L94.1659 90.319L98.3277 92.7248Z"/>
</mask>
<path d="M98.3277 92.7248L98.0265 92.8947L93.8647 90.4928L94.1659 90.319L98.3277 92.7248Z" fill="#1D1D1B"/>
<path d="M98.3277 92.7248L98.5734 93.1603C98.7297 93.0721 98.8267 92.9069 98.8277 92.7274C98.8286 92.548 98.7333 92.3818 98.5779 92.292L98.3277 92.7248ZM98.0265 92.8947L97.7766 93.3278C97.9298 93.4162 98.1182 93.4171 98.2723 93.3302L98.0265 92.8947ZM93.8647 90.4928L93.6148 90.0597C93.4601 90.149 93.3648 90.3141 93.3647 90.4928C93.3647 90.6715 93.4601 90.8365 93.6148 90.9259L93.8647 90.4928ZM94.1659 90.319L94.4161 89.8862C94.2614 89.7967 94.0707 89.7967 93.916 89.886L94.1659 90.319ZM98.082 92.2894L97.7808 92.4593L98.2723 93.3302L98.5734 93.1603L98.082 92.2894ZM98.2765 92.4617L94.1147 90.0598L93.6148 90.9259L97.7766 93.3278L98.2765 92.4617ZM94.1147 90.9259L94.4158 90.7521L93.916 89.886L93.6148 90.0597L94.1147 90.9259ZM93.9156 90.7519L98.0774 93.1577L98.5779 92.292L94.4161 89.8862L93.9156 90.7519Z" fill="#1D1D1B" mask="url(#path-76-inside-23_7830_9)"/>
<mask id="path-78-inside-24_7830_9" fill="white">
<path d="M93.5295 95.4916L93.2284 95.6654L91.1475 94.4644L91.4486 94.2906L93.5295 95.4916Z"/>
</mask>
<path d="M93.5295 95.4916L93.2284 95.6654L91.1475 94.4644L91.4486 94.2906L93.5295 95.4916Z" fill="#1D1D1B"/>
<path d="M93.5295 95.4916L93.7794 95.9247C93.9342 95.8354 94.0295 95.6703 94.0295 95.4916C94.0295 95.313 93.9342 95.1479 93.7794 95.0586L93.5295 95.4916ZM93.2284 95.6654L92.9784 96.0984C93.1331 96.1877 93.3236 96.1877 93.4783 96.0985L93.2284 95.6654ZM91.1475 94.4644L90.8976 94.0314C90.7428 94.1207 90.6475 94.2857 90.6475 94.4644C90.6475 94.6431 90.7428 94.8082 90.8975 94.8975L91.1475 94.4644ZM91.4486 94.2906L91.6985 93.8576C91.5439 93.7683 91.3533 93.7683 91.1987 93.8576L91.4486 94.2906ZM93.2796 95.0586L92.9785 95.2323L93.4783 96.0985L93.7794 95.9247L93.2796 95.0586ZM93.4783 95.2323L91.3974 94.0314L90.8975 94.8975L92.9784 96.0984L93.4783 95.2323ZM91.3974 94.8975L91.6985 94.7237L91.1987 93.8576L90.8976 94.0314L91.3974 94.8975ZM91.1987 94.7237L93.2796 95.9247L93.7794 95.0586L91.6985 93.8576L91.1987 94.7237Z" fill="#1D1D1B" mask="url(#path-78-inside-24_7830_9)"/>
<mask id="path-80-inside-25_7830_9" fill="white">
<path d="M95.928 94.111L95.6307 94.2809L93.5498 93.0799L93.8471 92.9061L95.928 94.111Z"/>
</mask>
<path d="M95.928 94.111L95.6307 94.2809L93.5498 93.0799L93.8471 92.9061L95.928 94.111Z" fill="#1D1D1B"/>
<path d="M95.928 94.111L96.1761 94.5451C96.3314 94.4563 96.4275 94.2913 96.428 94.1123C96.4285 93.9334 96.3333 93.7679 96.1785 93.6783L95.928 94.111ZM95.6307 94.2809L95.3808 94.7139C95.5348 94.8028 95.7244 94.8032 95.8788 94.715L95.6307 94.2809ZM93.5498 93.0799L93.2975 92.6482C93.1437 92.7382 93.0493 92.9031 93.0498 93.0813C93.0503 93.2595 93.1456 93.4239 93.2999 93.513L93.5498 93.0799ZM93.8471 92.9061L94.0976 92.4734C93.942 92.3833 93.75 92.3837 93.5947 92.4745L93.8471 92.9061ZM95.6799 93.6769L95.3826 93.8468L95.8788 94.715L96.1761 94.5451L95.6799 93.6769ZM95.8806 93.8478L93.7997 92.6468L93.2999 93.513L95.3808 94.7139L95.8806 93.8478ZM93.8021 93.5116L94.0994 93.3378L93.5947 92.4745L93.2975 92.6482L93.8021 93.5116ZM93.5965 93.3388L95.6774 94.5437L96.1785 93.6783L94.0976 92.4734L93.5965 93.3388Z" fill="#1D1D1B" mask="url(#path-80-inside-25_7830_9)"/>
<mask id="path-82-inside-26_7830_9" fill="white">
<path d="M104.328 89.2568L104.027 89.4306L99.8647 87.0286L100.166 86.8549L104.328 89.2568Z"/>
</mask>
<path d="M104.328 89.2568L104.027 89.4306L99.8647 87.0286L100.166 86.8549L104.328 89.2568Z" fill="#1D1D1B"/>
<path d="M104.328 89.2568L104.578 89.6899C104.732 89.6006 104.828 89.4355 104.828 89.2568C104.828 89.0781 104.732 88.9131 104.578 88.8237L104.328 89.2568ZM104.027 89.4306L103.777 89.8636C103.931 89.9529 104.122 89.9529 104.276 89.8636L104.027 89.4306ZM99.8647 87.0286L99.6148 86.5956C99.4601 86.6849 99.3648 86.85 99.3647 87.0286C99.3647 87.2073 99.4601 87.3724 99.6148 87.4617L99.8647 87.0286ZM100.166 86.8549L100.416 86.4218C100.261 86.3325 100.071 86.3325 99.916 86.4218L100.166 86.8549ZM104.078 88.8237L103.777 88.9975L104.276 89.8636L104.578 89.6899L104.078 88.8237ZM104.276 88.9975L100.115 86.5956L99.6148 87.4617L103.777 89.8636L104.276 88.9975ZM100.115 87.4617L100.416 87.2879L99.916 86.4218L99.6148 86.5956L100.115 87.4617ZM99.9159 87.2879L104.078 89.6899L104.578 88.8237L100.416 86.4218L99.9159 87.2879Z" fill="#1D1D1B" mask="url(#path-82-inside-26_7830_9)"/>
<mask id="path-84-inside-27_7830_9" fill="white">
<path d="M99.5315 92.029L99.2303 92.2027L97.1494 91.0018L97.4505 90.828L99.5315 92.029Z"/>
</mask>
<path d="M99.5315 92.029L99.2303 92.2027L97.1494 91.0018L97.4505 90.828L99.5315 92.029Z" fill="#1D1D1B"/>
<path d="M99.5315 92.029L99.7814 92.462C99.9361 92.3727 100.031 92.2077 100.031 92.029C100.031 91.8503 99.9361 91.6852 99.7814 91.5959L99.5315 92.029ZM99.2303 92.2027L98.9804 92.6358C99.1351 92.7251 99.3256 92.7251 99.4802 92.6358L99.2303 92.2027ZM97.1494 91.0018L96.8995 90.5687C96.7448 90.658 96.6494 90.8231 96.6494 91.0018C96.6494 91.1804 96.7447 91.3455 96.8995 91.4348L97.1494 91.0018ZM97.4505 90.828L97.7005 90.395C97.5458 90.3057 97.3553 90.3057 97.2006 90.3949L97.4505 90.828ZM99.2816 91.5959L98.9804 91.7697L99.4802 92.6358L99.7814 92.462L99.2816 91.5959ZM99.4803 91.7697L97.3993 90.5687L96.8995 91.4348L98.9804 92.6358L99.4803 91.7697ZM97.3993 91.4348L97.7005 91.2611L97.2006 90.3949L96.8995 90.5687L97.3993 91.4348ZM97.2006 91.2611L99.2815 92.462L99.7814 91.5959L97.7005 90.395L97.2006 91.2611Z" fill="#1D1D1B" mask="url(#path-84-inside-27_7830_9)"/>
<mask id="path-86-inside-28_7830_9" fill="white">
<path d="M101.927 90.6429L101.629 90.8167L99.5483 89.6157L99.8456 89.442L101.927 90.6429Z"/>
</mask>
<path d="M101.927 90.6429L101.629 90.8167L99.5483 89.6157L99.8456 89.442L101.927 90.6429Z" fill="#1D1D1B"/>
<path d="M101.927 90.6429L102.179 91.0746C102.333 90.9847 102.427 90.8197 102.427 90.6415C102.426 90.4634 102.331 90.2989 102.176 90.2099L101.927 90.6429ZM101.629 90.8167L101.379 91.2498C101.535 91.3395 101.727 91.339 101.882 91.2484L101.629 90.8167ZM99.5483 89.6157L99.296 89.1841C99.1422 89.274 99.0478 89.439 99.0483 89.6171C99.0488 89.7953 99.1441 89.9597 99.2984 90.0488L99.5483 89.6157ZM99.8456 89.442L100.096 89.0089C99.94 88.9191 99.7483 88.9197 99.5933 89.0103L99.8456 89.442ZM101.674 90.2113L101.377 90.385L101.882 91.2484L102.179 91.0746L101.674 90.2113ZM101.879 90.3836L99.7983 89.1827L99.2984 90.0488L101.379 91.2498L101.879 90.3836ZM99.8007 90.0474L100.098 89.8736L99.5933 89.0103L99.296 89.1841L99.8007 90.0474ZM99.5957 89.875L101.677 91.076L102.176 90.2099L100.096 89.0089L99.5957 89.875Z" fill="#1D1D1B" mask="url(#path-86-inside-28_7830_9)"/>
<mask id="path-88-inside-29_7830_9" fill="white">
<path d="M110.327 85.7939L110.029 85.9676L105.864 83.5618L106.165 83.3881L110.327 85.7939Z"/>
</mask>
<path d="M110.327 85.7939L110.029 85.9676L105.864 83.5618L106.165 83.3881L110.327 85.7939Z" fill="#1D1D1B"/>
<path d="M110.327 85.7939L110.579 86.2255C110.733 86.1356 110.827 85.9708 110.827 85.7926C110.826 85.6145 110.731 85.4501 110.577 85.361L110.327 85.7939ZM110.029 85.9676L109.779 86.4006C109.935 86.4904 110.127 86.4899 110.282 86.3993L110.029 85.9676ZM105.864 83.5618L105.614 83.1288C105.459 83.2181 105.364 83.3831 105.364 83.5617C105.364 83.7404 105.459 83.9055 105.614 83.9948L105.864 83.5618ZM106.165 83.3881L106.415 82.9552C106.26 82.8658 106.07 82.8657 105.915 82.955L106.165 83.3881ZM110.074 85.3622L109.777 85.536L110.282 86.3993L110.579 86.2255L110.074 85.3622ZM110.28 85.5347L106.114 83.1289L105.614 83.9948L109.779 86.4006L110.28 85.5347ZM106.114 83.9949L106.415 83.8211L105.915 82.955L105.614 83.1288L106.114 83.9949ZM105.915 83.8209L110.076 86.2267L110.577 85.361L106.415 82.9552L105.915 83.8209Z" fill="#1D1D1B" mask="url(#path-88-inside-29_7830_9)"/>
<mask id="path-90-inside-30_7830_9" fill="white">
<path d="M105.53 88.5677L105.229 88.7415L103.148 87.5367L103.45 87.3668L105.53 88.5677Z"/>
</mask>
<path d="M105.53 88.5677L105.229 88.7415L103.148 87.5367L103.45 87.3668L105.53 88.5677Z" fill="#1D1D1B"/>
<path d="M105.53 88.5677L105.78 89.0008C105.935 88.9115 106.03 88.7464 106.03 88.5677C106.03 88.3891 105.935 88.224 105.78 88.1347L105.53 88.5677ZM105.229 88.7415L104.979 89.1742C105.134 89.2638 105.324 89.2639 105.479 89.1746L105.229 88.7415ZM103.148 87.5367L102.903 87.1012C102.746 87.1894 102.649 87.3545 102.648 87.5339C102.647 87.7133 102.743 87.8795 102.898 87.9694L103.148 87.5367ZM103.45 87.3668L103.7 86.9337C103.546 86.8453 103.358 86.8444 103.204 86.9313L103.45 87.3668ZM105.281 88.1347L104.979 88.3084L105.479 89.1746L105.78 89.0008L105.281 88.1347ZM105.48 88.3088L103.399 87.104L102.898 87.9694L104.979 89.1742L105.48 88.3088ZM103.394 87.9721L103.695 87.8022L103.204 86.9313L102.903 87.1012L103.394 87.9721ZM103.2 87.7998L105.281 89.0008L105.78 88.1347L103.7 86.9337L103.2 87.7998Z" fill="#1D1D1B" mask="url(#path-90-inside-30_7830_9)"/>
<mask id="path-92-inside-31_7830_9" fill="white">
<path d="M107.931 87.1784L107.63 87.3522L105.549 86.1474L105.85 85.9775L107.931 87.1784Z"/>
</mask>
<path d="M107.931 87.1784L107.63 87.3522L105.549 86.1474L105.85 85.9775L107.931 87.1784Z" fill="#1D1D1B"/>
<path d="M107.931 87.1784L108.181 87.6115C108.336 87.5222 108.431 87.3571 108.431 87.1785C108.431 86.9998 108.336 86.8347 108.181 86.7454L107.931 87.1784ZM107.63 87.3522L107.379 87.7849C107.534 87.8745 107.725 87.8747 107.88 87.7853L107.63 87.3522ZM105.549 86.1474L105.303 85.7119C105.147 85.8001 105.05 85.9652 105.049 86.1446C105.048 86.324 105.143 86.4902 105.298 86.5801L105.549 86.1474ZM105.85 85.9775L106.1 85.5444C105.947 85.456 105.758 85.4551 105.604 85.542L105.85 85.9775ZM107.681 86.7454L107.38 86.9192L107.88 87.7853L108.181 87.6115L107.681 86.7454ZM107.88 86.9195L105.799 85.7147L105.298 86.5801L107.379 87.7849L107.88 86.9195ZM105.795 86.5829L106.096 86.4129L105.604 85.542L105.303 85.7119L105.795 86.5829ZM105.6 86.4105L107.681 87.6115L108.181 86.7454L106.1 85.5444L105.6 86.4105Z" fill="#1D1D1B" mask="url(#path-92-inside-31_7830_9)"/>
<mask id="path-94-inside-32_7830_9" fill="white">
<path d="M116.327 82.3277L116.03 82.5015L111.868 80.0957L112.165 79.9219L116.327 82.3277Z"/>
</mask>
<path d="M116.327 82.3277L116.03 82.5015L111.868 80.0957L112.165 79.9219L116.327 82.3277Z" fill="#1D1D1B"/>
<path d="M116.327 82.3277L116.58 82.7594C116.733 82.6695 116.828 82.5046 116.827 82.3265C116.827 82.1484 116.732 81.984 116.577 81.8949L116.327 82.3277ZM116.03 82.5015L115.78 82.9344C115.935 83.0243 116.127 83.0239 116.282 82.9332L116.03 82.5015ZM111.868 80.0957L111.616 79.664C111.462 79.7539 111.368 79.9188 111.368 80.0969C111.369 80.275 111.464 80.4395 111.618 80.5286L111.868 80.0957ZM112.165 79.9219L112.416 79.4891C112.26 79.3991 112.068 79.3996 111.913 79.4903L112.165 79.9219ZM116.075 81.8961L115.778 82.0698L116.282 82.9332L116.58 82.7594L116.075 81.8961ZM116.28 82.0686L112.118 79.6628L111.618 80.5286L115.78 82.9344L116.28 82.0686ZM112.12 80.5274L112.418 80.3536L111.913 79.4903L111.616 79.664L112.12 80.5274ZM111.915 80.3548L116.077 82.7606L116.577 81.8949L112.416 79.4891L111.915 80.3548Z" fill="#1D1D1B" mask="url(#path-94-inside-32_7830_9)"/>
<mask id="path-96-inside-33_7830_9" fill="white">
<path d="M111.529 85.0999L111.227 85.2698L109.146 84.0689L109.448 83.8951L111.529 85.0999Z"/>
</mask>
<path d="M111.529 85.0999L111.227 85.2698L109.146 84.0689L109.448 83.8951L111.529 85.0999Z" fill="#1D1D1B"/>
<path d="M111.529 85.0999L111.774 85.5354C111.93 85.4472 112.028 85.2821 112.029 85.1027C112.03 84.9233 111.934 84.7571 111.779 84.6672L111.529 85.0999ZM111.227 85.2698L110.977 85.7029C111.131 85.7913 111.319 85.7922 111.473 85.7053L111.227 85.2698ZM109.146 84.0689L108.897 83.6358C108.742 83.7251 108.646 83.8902 108.646 84.0688C108.646 84.2475 108.742 84.4126 108.897 84.5019L109.146 84.0689ZM109.448 83.8951L109.698 83.4624C109.543 83.3728 109.353 83.3726 109.198 83.462L109.448 83.8951ZM111.283 84.6645L110.982 84.8344L111.473 85.7053L111.774 85.5354L111.283 84.6645ZM111.477 84.8368L109.396 83.6358L108.897 84.5019L110.977 85.7029L111.477 84.8368ZM109.396 84.5019L109.698 84.3281L109.198 83.462L108.897 83.6358L109.396 84.5019ZM109.197 84.3278L111.278 85.5326L111.779 84.6672L109.698 83.4624L109.197 84.3278Z" fill="#1D1D1B" mask="url(#path-96-inside-33_7830_9)"/>
<mask id="path-98-inside-34_7830_9" fill="white">
<path d="M113.931 83.7139L113.63 83.8838L111.549 82.6828L111.85 82.5091L113.931 83.7139Z"/>
</mask>
<path d="M113.931 83.7139L113.63 83.8838L111.549 82.6828L111.85 82.5091L113.931 83.7139Z" fill="#1D1D1B"/>
<path d="M113.931 83.7139L114.177 84.1494C114.333 84.0612 114.43 83.8961 114.431 83.7167C114.432 83.5373 114.337 83.3711 114.181 83.2812L113.931 83.7139ZM113.63 83.8838L113.38 84.3169C113.533 84.4053 113.721 84.4062 113.875 84.3193L113.63 83.8838ZM111.549 82.6828L111.299 82.2498C111.144 82.3391 111.049 82.5042 111.049 82.6828C111.049 82.8615 111.144 83.0266 111.299 83.1159L111.549 82.6828ZM111.85 82.5091L112.1 82.0764C111.946 81.9868 111.755 81.9866 111.6 82.076L111.85 82.5091ZM113.685 83.2784L113.384 83.4484L113.875 84.3193L114.177 84.1494L113.685 83.2784ZM113.88 83.4508L111.799 82.2498L111.299 83.1159L113.38 84.3169L113.88 83.4508ZM111.799 83.1159L112.1 82.9421L111.6 82.076L111.299 82.2498L111.799 83.1159ZM111.599 82.9418L113.68 84.1466L114.181 83.2812L112.1 82.0764L111.599 82.9418Z" fill="#1D1D1B" mask="url(#path-98-inside-34_7830_9)"/>
<mask id="path-100-inside-35_7830_9" fill="white">
<path d="M122.331 78.863L122.03 79.0368L117.868 76.6348L118.165 76.4611L122.331 78.863Z"/>
</mask>
<path d="M122.331 78.863L122.03 79.0368L117.868 76.6348L118.165 76.4611L122.331 78.863Z" fill="#1D1D1B"/>
<path d="M122.331 78.863L122.581 79.2961C122.736 79.2067 122.831 79.0416 122.831 78.8629C122.831 78.6842 122.736 78.5191 122.581 78.4298L122.331 78.863ZM122.03 79.0368L121.78 79.4698C121.935 79.5591 122.125 79.5591 122.28 79.4698L122.03 79.0368ZM117.868 76.6348L117.616 76.2032C117.462 76.2931 117.368 76.4581 117.368 76.6362C117.369 76.8144 117.464 76.9788 117.618 77.0679L117.868 76.6348ZM118.165 76.4611L118.415 76.0279C118.26 75.9382 118.068 75.9388 117.913 76.0294L118.165 76.4611ZM122.081 78.4299L121.78 78.6037L122.28 79.4698L122.581 79.2961L122.081 78.4299ZM122.28 78.6037L118.118 76.2018L117.618 77.0679L121.78 79.4698L122.28 78.6037ZM118.12 77.0665L118.418 76.8927L117.913 76.0294L117.616 76.2032L118.12 77.0665ZM117.916 76.8942L122.081 79.2962L122.581 78.4298L118.415 76.0279L117.916 76.8942Z" fill="#1D1D1B" mask="url(#path-100-inside-35_7830_9)"/>
<mask id="path-102-inside-36_7830_9" fill="white">
<path d="M117.529 81.6336L117.232 81.8074L115.151 80.6065L115.448 80.4327L117.529 81.6336Z"/>
</mask>
<path d="M117.529 81.6336L117.232 81.8074L115.151 80.6065L115.448 80.4327L117.529 81.6336Z" fill="#1D1D1B"/>
<path d="M117.529 81.6336L117.781 82.0653C117.935 81.9754 118.03 81.8104 118.029 81.6323C118.029 81.4541 117.933 81.2897 117.779 81.2006L117.529 81.6336ZM117.232 81.8074L116.982 82.2405C117.137 82.3302 117.329 82.3297 117.484 82.2391L117.232 81.8074ZM115.151 80.6065L114.899 80.1748C114.745 80.2647 114.65 80.4297 114.651 80.6078C114.651 80.786 114.747 80.9504 114.901 81.0395L115.151 80.6065ZM115.448 80.4327L115.698 79.9996C115.543 79.9099 115.351 79.9104 115.196 80.001L115.448 80.4327ZM117.277 81.202L116.979 81.3758L117.484 82.2391L117.781 82.0653L117.277 81.202ZM117.482 81.3744L115.401 80.1734L114.901 81.0395L116.982 82.2405L117.482 81.3744ZM115.403 81.0381L115.7 80.8643L115.196 80.001L114.899 80.1748L115.403 81.0381ZM115.198 80.8657L117.279 82.0667L117.779 81.2006L115.698 79.9996L115.198 80.8657Z" fill="#1D1D1B" mask="url(#path-102-inside-36_7830_9)"/>
<mask id="path-104-inside-37_7830_9" fill="white">
<path d="M119.928 80.2492L119.627 80.4229L117.546 79.222L117.848 79.0482L119.928 80.2492Z"/>
</mask>
<path d="M119.928 80.2492L119.627 80.4229L117.546 79.222L117.848 79.0482L119.928 80.2492Z" fill="#1D1D1B"/>
<path d="M119.928 80.2492L120.178 80.6822C120.333 80.5929 120.428 80.4278 120.428 80.2492C120.428 80.0705 120.333 79.9054 120.178 79.8161L119.928 80.2492ZM119.627 80.4229L119.377 80.856C119.532 80.9452 119.723 80.9452 119.877 80.856L119.627 80.4229ZM117.546 79.222L117.296 78.7889C117.142 78.8782 117.046 79.0433 117.046 79.2219C117.046 79.4006 117.142 79.5657 117.296 79.655L117.546 79.222ZM117.848 79.0482L118.097 78.6151C117.943 78.5259 117.752 78.5259 117.598 78.6151L117.848 79.0482ZM119.679 79.8161L119.377 79.9899L119.877 80.856L120.178 80.6822L119.679 79.8161ZM119.877 79.9899L117.796 78.7889L117.296 79.655L119.377 80.856L119.877 79.9899ZM117.796 79.655L118.097 79.4813L117.598 78.6151L117.296 78.7889L117.796 79.655ZM117.598 79.4812L119.678 80.6822L120.178 79.8161L118.097 78.6151L117.598 79.4812Z" fill="#1D1D1B" mask="url(#path-104-inside-37_7830_9)"/>
<mask id="path-106-inside-38_7830_9" fill="white">
<path d="M128.332 75.3962L128.031 75.57L123.869 73.1642L124.17 72.9943L128.332 75.3962Z"/>
</mask>
<path d="M128.332 75.3962L128.031 75.57L123.869 73.1642L124.17 72.9943L128.332 75.3962Z" fill="#1D1D1B"/>
<path d="M128.332 75.3962L128.582 75.8293C128.737 75.74 128.832 75.5749 128.832 75.3962C128.832 75.2176 128.737 75.0525 128.582 74.9632L128.332 75.3962ZM128.031 75.57L127.781 76.0029C127.935 76.0923 128.126 76.0924 128.281 76.0031L128.031 75.57ZM123.869 73.1642L123.623 72.7287C123.467 72.8169 123.37 72.9821 123.369 73.1616C123.368 73.3411 123.464 73.5073 123.619 73.5971L123.869 73.1642ZM124.17 72.9943L124.42 72.5612C124.267 72.4728 124.079 72.4719 123.925 72.5588L124.17 72.9943ZM128.082 74.9632L127.781 75.1369L128.281 76.0031L128.582 75.8293L128.082 74.9632ZM128.281 75.1371L124.119 72.7313L123.619 73.5971L127.781 76.0029L128.281 75.1371ZM124.115 73.5997L124.416 73.4298L123.925 72.5588L123.623 72.7287L124.115 73.5997ZM123.92 73.4273L128.082 75.8293L128.582 74.9632L124.42 72.5612L123.92 73.4273Z" fill="#1D1D1B" mask="url(#path-106-inside-38_7830_9)"/>
<mask id="path-108-inside-39_7830_9" fill="white">
<path d="M123.529 78.1692L123.231 78.343L121.15 77.1381L121.448 76.9682L123.529 78.1692Z"/>
</mask>
<path d="M123.529 78.1692L123.231 78.343L121.15 77.1381L121.448 76.9682L123.529 78.1692Z" fill="#1D1D1B"/>
<path d="M123.529 78.1692L123.781 78.6008C123.935 78.5109 124.029 78.346 124.029 78.1678C124.028 77.9896 123.933 77.8252 123.778 77.7361L123.529 78.1692ZM123.231 78.343L122.981 78.7757C123.136 78.8658 123.328 78.8654 123.484 78.7746L123.231 78.343ZM121.15 77.1381L120.902 76.704C120.747 76.7928 120.651 76.9578 120.65 77.1367C120.65 77.3156 120.745 77.4812 120.9 77.5708L121.15 77.1381ZM121.448 76.9682L121.698 76.5351C121.544 76.4463 121.354 76.4459 121.2 76.5341L121.448 76.9682ZM123.276 77.7375L122.979 77.9113L123.484 78.7746L123.781 78.6008L123.276 77.7375ZM123.482 77.9102L121.401 76.7054L120.9 77.5708L122.981 78.7757L123.482 77.9102ZM121.399 77.5722L121.696 77.4023L121.2 76.5341L120.902 76.704L121.399 77.5722ZM121.198 77.4013L123.279 78.6022L123.778 77.7361L121.698 76.5351L121.198 77.4013Z" fill="#1D1D1B" mask="url(#path-108-inside-39_7830_9)"/>
<mask id="path-110-inside-40_7830_9" fill="white">
<path d="M125.929 76.7824L125.628 76.9562L123.547 75.7552L123.848 75.5814L125.929 76.7824Z"/>
</mask>
<path d="M125.929 76.7824L125.628 76.9562L123.547 75.7552L123.848 75.5814L125.929 76.7824Z" fill="#1D1D1B"/>
<path d="M125.929 76.7824L126.179 77.2155C126.334 77.1262 126.429 76.9611 126.429 76.7824C126.429 76.6037 126.334 76.4386 126.179 76.3493L125.929 76.7824ZM125.628 76.9562L125.378 77.3892C125.533 77.4785 125.724 77.4785 125.878 77.3892L125.628 76.9562ZM123.547 75.7552L123.297 75.3221C123.143 75.4114 123.047 75.5765 123.047 75.7552C123.047 75.9338 123.143 76.0989 123.297 76.1882L123.547 75.7552ZM123.848 75.5814L124.098 75.1484C123.944 75.0591 123.753 75.0591 123.599 75.1484L123.848 75.5814ZM125.679 76.3493L125.378 76.5231L125.878 77.3892L126.179 77.2155L125.679 76.3493ZM125.878 76.5231L123.797 75.3221L123.297 76.1882L125.378 77.3892L125.878 76.5231ZM123.797 76.1883L124.098 76.0145L123.599 75.1484L123.297 75.3221L123.797 76.1883ZM123.599 76.0145L125.679 77.2154L126.179 76.3493L124.098 75.1484L123.599 76.0145Z" fill="#1D1D1B" mask="url(#path-110-inside-40_7830_9)"/>
<mask id="path-112-inside-41_7830_9" fill="white">
<path d="M134.328 71.9353L134.027 72.1091L129.865 69.7033L130.166 69.5295L134.328 71.9353Z"/>
</mask>
<path d="M134.328 71.9353L134.027 72.1091L129.865 69.7033L130.166 69.5295L134.328 71.9353Z" fill="#1D1D1B"/>
<path d="M134.328 71.9353L134.578 72.3683C134.732 72.2791 134.828 72.1141 134.828 71.9355C134.828 71.7569 134.733 71.5918 134.578 71.5024L134.328 71.9353ZM134.027 72.1091L133.776 72.5419C133.931 72.6314 134.122 72.6314 134.276 72.5421L134.027 72.1091ZM129.865 69.7033L129.615 69.2702C129.46 69.3595 129.365 69.5245 129.365 69.7031C129.365 69.8817 129.46 70.0467 129.615 70.1361L129.865 69.7033ZM130.166 69.5295L130.416 69.0966C130.261 69.0072 130.071 69.0071 129.916 69.0964L130.166 69.5295ZM134.078 71.5022L133.777 71.676L134.276 72.5421L134.578 72.3683L134.078 71.5022ZM134.277 71.6762L130.115 69.2704L129.615 70.1361L133.776 72.5419L134.277 71.6762ZM130.115 70.1363L130.416 69.9625L129.916 69.0964L129.615 69.2702L130.115 70.1363ZM129.916 69.9624L134.077 72.3682L134.578 71.5024L130.416 69.0966L129.916 69.9624Z" fill="#1D1D1B" mask="url(#path-112-inside-41_7830_9)"/>
<mask id="path-114-inside-42_7830_9" fill="white">
<path d="M129.531 74.7059L129.23 74.8758L127.149 73.6749L127.451 73.5011L129.531 74.7059Z"/>
</mask>
<path d="M129.531 74.7059L129.23 74.8758L127.149 73.6749L127.451 73.5011L129.531 74.7059Z" fill="#1D1D1B"/>
<path d="M129.531 74.7059L129.777 75.1414C129.933 75.0532 130.03 74.8881 130.031 74.7087C130.032 74.5293 129.937 74.3631 129.782 74.2732L129.531 74.7059ZM129.23 74.8758L128.98 75.3089C129.134 75.3973 129.322 75.3982 129.476 75.3113L129.23 74.8758ZM127.149 73.6749L126.9 73.2418C126.745 73.3311 126.649 73.4962 126.649 73.6749C126.649 73.8535 126.745 74.0186 126.899 74.1079L127.149 73.6749ZM127.451 73.5011L127.701 73.0684C127.546 72.9788 127.356 72.9787 127.201 73.068L127.451 73.5011ZM129.286 74.2705L128.985 74.4404L129.476 75.3113L129.777 75.1414L129.286 74.2705ZM129.48 74.4428L127.399 73.2418L126.899 74.1079L128.98 75.3089L129.48 74.4428ZM127.399 74.1079L127.7 73.9342L127.201 73.068L126.9 73.2418L127.399 74.1079ZM127.2 73.9338L129.281 75.1386L129.782 74.2732L127.701 73.0684L127.2 73.9338Z" fill="#1D1D1B" mask="url(#path-114-inside-42_7830_9)"/>
<mask id="path-116-inside-43_7830_9" fill="white">
<path d="M131.929 73.3214L131.632 73.4914L129.547 72.2904L129.848 72.1166L131.929 73.3214Z"/>
</mask>
<path d="M131.929 73.3214L131.632 73.4914L129.547 72.2904L129.848 72.1166L131.929 73.3214Z" fill="#1D1D1B"/>
<path d="M131.929 73.3214L132.177 73.7555C132.332 73.6668 132.428 73.5017 132.429 73.3228C132.429 73.1439 132.334 72.9784 132.179 72.8887L131.929 73.3214ZM131.632 73.4914L131.382 73.9246C131.536 74.0133 131.725 74.0136 131.88 73.9254L131.632 73.4914ZM129.547 72.2904L129.297 71.8573C129.142 71.9467 129.047 72.1118 129.047 72.2906C129.047 72.4693 129.142 72.6344 129.297 72.7236L129.547 72.2904ZM129.848 72.1166L130.099 71.6839C129.944 71.5943 129.753 71.5942 129.598 71.6835L129.848 72.1166ZM131.681 72.8873L131.384 73.0573L131.88 73.9254L132.177 73.7555L131.681 72.8873ZM131.881 73.0581L129.796 71.8571L129.297 72.7236L131.382 73.9246L131.881 73.0581ZM129.797 72.7234L130.098 72.5497L129.598 71.6835L129.297 71.8573L129.797 72.7234ZM129.597 72.5493L131.678 73.7541L132.179 72.8887L130.099 71.6839L129.597 72.5493Z" fill="#1D1D1B" mask="url(#path-116-inside-43_7830_9)"/>
<mask id="path-118-inside-44_7830_9" fill="white">
<path d="M140.331 68.4666L140.029 68.6404L135.868 66.2384L136.169 66.0647L140.331 68.4666Z"/>
</mask>
<path d="M140.331 68.4666L140.029 68.6404L135.868 66.2384L136.169 66.0647L140.331 68.4666Z" fill="#1D1D1B"/>
<path d="M140.331 68.4666L140.581 68.8997C140.735 68.8104 140.831 68.6453 140.831 68.4666C140.831 68.2879 140.735 68.1229 140.581 68.0335L140.331 68.4666ZM140.029 68.6404L139.78 69.0734C139.934 69.1627 140.125 69.1627 140.279 69.0734L140.029 68.6404ZM135.868 66.2384L135.618 65.8054C135.463 65.8947 135.368 66.0598 135.368 66.2384C135.368 66.4171 135.463 66.5822 135.618 66.6715L135.868 66.2384ZM136.169 66.0647L136.419 65.6316C136.264 65.5424 136.074 65.5424 135.919 65.6316L136.169 66.0647ZM140.081 68.0335L139.78 68.2073L140.279 69.0734L140.581 68.8997L140.081 68.0335ZM140.279 68.2073L136.118 65.8054L135.618 66.6715L139.78 69.0734L140.279 68.2073ZM136.118 66.6715L136.419 66.4977L135.919 65.6316L135.618 65.8054L136.118 66.6715ZM135.919 66.4977L140.081 68.8997L140.581 68.0335L136.419 65.6316L135.919 66.4977Z" fill="#1D1D1B" mask="url(#path-118-inside-44_7830_9)"/>
<mask id="path-120-inside-45_7830_9" fill="white">
<path d="M135.531 71.2382L135.23 71.412L133.149 70.211L133.45 70.0373L135.531 71.2382Z"/>
</mask>
<path d="M135.531 71.2382L135.23 71.412L133.149 70.211L133.45 70.0373L135.531 71.2382Z" fill="#1D1D1B"/>
<path d="M135.531 71.2382L135.781 71.6713C135.936 71.582 136.031 71.4169 136.031 71.2382C136.031 71.0596 135.936 70.8945 135.781 70.8052L135.531 71.2382ZM135.23 71.412L134.98 71.8451C135.135 71.9343 135.325 71.9343 135.48 71.8451L135.23 71.412ZM133.149 70.211L132.899 69.778C132.744 69.8673 132.649 70.0324 132.649 70.211C132.649 70.3897 132.744 70.5548 132.899 70.6441L133.149 70.211ZM133.45 70.0373L133.7 69.6042C133.545 69.515 133.355 69.5149 133.2 69.6042L133.45 70.0373ZM135.281 70.8052L134.98 70.9789L135.48 71.8451L135.781 71.6713L135.281 70.8052ZM135.48 70.979L133.399 69.778L132.899 70.6441L134.98 71.8451L135.48 70.979ZM133.399 70.6441L133.7 70.4703L133.2 69.6042L132.899 69.778L133.399 70.6441ZM133.2 70.4703L135.281 71.6713L135.781 70.8052L133.7 69.6042L133.2 70.4703Z" fill="#1D1D1B" mask="url(#path-120-inside-45_7830_9)"/>
<mask id="path-122-inside-46_7830_9" fill="white">
<path d="M136.733 70.5483L136.431 70.7221L134.351 69.5172L134.648 69.3473L136.733 70.5483Z"/>
</mask>
<path d="M136.733 70.5483L136.431 70.7221L134.351 69.5172L134.648 69.3473L136.733 70.5483Z" fill="#1D1D1B"/>
<path d="M136.733 70.5483L136.983 70.9814C137.137 70.892 137.233 70.7268 137.233 70.5481C137.233 70.3694 137.137 70.2043 136.982 70.115L136.733 70.5483ZM136.431 70.7221L136.181 71.1548C136.336 71.2444 136.527 71.2445 136.681 71.1551L136.431 70.7221ZM134.351 69.5172L134.102 69.0831C133.947 69.1719 133.851 69.3369 133.851 69.5158C133.85 69.6948 133.945 69.8603 134.1 69.9499L134.351 69.5172ZM134.648 69.3473L134.897 68.9141C134.743 68.8254 134.554 68.8251 134.4 68.9132L134.648 69.3473ZM136.483 70.1152L136.182 70.289L136.681 71.1551L136.983 70.9814L136.483 70.1152ZM136.682 70.2894L134.601 69.0845L134.1 69.9499L136.181 71.1548L136.682 70.2894ZM134.599 69.9513L134.896 69.7814L134.4 68.9132L134.102 69.0831L134.599 69.9513ZM134.398 69.7806L136.483 70.9815L136.982 70.115L134.897 68.9141L134.398 69.7806Z" fill="#1D1D1B" mask="url(#path-122-inside-46_7830_9)"/>
<mask id="path-124-inside-47_7830_9" fill="white">
<path d="M137.927 69.852L137.63 70.0258L135.549 68.8248L135.847 68.651L137.927 69.852Z"/>
</mask>
<path d="M137.927 69.852L137.63 70.0258L135.549 68.8248L135.847 68.651L137.927 69.852Z" fill="#1D1D1B"/>
<path d="M137.927 69.852L138.18 70.2837C138.334 70.1937 138.428 70.0288 138.427 69.8506C138.427 69.6724 138.332 69.508 138.177 69.4189L137.927 69.852ZM137.63 70.0258L137.38 70.4588C137.536 70.5486 137.728 70.5481 137.883 70.4574L137.63 70.0258ZM135.549 68.8248L135.297 68.3931C135.143 68.4831 135.049 68.648 135.049 68.8262C135.05 69.0044 135.145 69.1688 135.299 69.2579L135.549 68.8248ZM135.847 68.651L136.097 68.218C135.941 68.1282 135.749 68.1288 135.594 68.2194L135.847 68.651ZM137.675 69.4203L137.378 69.5941L137.883 70.4574L138.18 70.2837L137.675 69.4203ZM137.88 69.5927L135.799 68.3918L135.299 69.2579L137.38 70.4588L137.88 69.5927ZM135.802 69.2565L136.099 69.0827L135.594 68.2194L135.297 68.3931L135.802 69.2565ZM135.597 69.0841L137.678 70.2851L138.177 69.4189L136.097 68.218L135.597 69.0841Z" fill="#1D1D1B" mask="url(#path-124-inside-47_7830_9)"/>
<mask id="path-126-inside-48_7830_9" fill="white">
<path d="M139.129 69.1613L138.831 69.3351L136.747 68.1302L137.048 67.9603L139.129 69.1613Z"/>
</mask>
<path d="M139.129 69.1613L138.831 69.3351L136.747 68.1302L137.048 67.9603L139.129 69.1613Z" fill="#1D1D1B"/>
<path d="M139.129 69.1613L139.381 69.593C139.535 69.503 139.629 69.3381 139.629 69.1599C139.628 68.9817 139.533 68.8173 139.379 68.7282L139.129 69.1613ZM138.831 69.3351L138.581 69.768C138.737 69.8579 138.929 69.8574 139.084 69.7667L138.831 69.3351ZM136.747 68.1302L136.501 67.6948C136.345 67.783 136.248 67.9482 136.247 68.1277C136.246 68.3071 136.341 68.4733 136.496 68.5631L136.747 68.1302ZM137.048 67.9603L137.298 67.5273C137.144 67.4389 136.956 67.438 136.802 67.5249L137.048 67.9603ZM138.876 68.7296L138.579 68.9034L139.084 69.7667L139.381 69.593L138.876 68.7296ZM139.082 68.9022L136.997 67.6973L136.496 68.5631L138.581 69.768L139.082 68.9022ZM136.992 68.5657L137.293 68.3958L136.802 67.5249L136.501 67.6948L136.992 68.5657ZM136.798 68.3934L138.879 69.5944L139.379 68.7282L137.298 67.5273L136.798 68.3934Z" fill="#1D1D1B" mask="url(#path-126-inside-48_7830_9)"/>
<mask id="path-128-inside-49_7830_9" fill="white">
<path d="M146.327 65.0031L146.03 65.1768L141.864 62.771L142.165 62.6011L146.327 65.0031Z"/>
</mask>
<path d="M146.327 65.0031L146.03 65.1768L141.864 62.771L142.165 62.6011L146.327 65.0031Z" fill="#1D1D1B"/>
<path d="M146.327 65.0031L146.58 65.4347C146.733 65.3448 146.828 65.1799 146.827 65.0017C146.827 64.8235 146.731 64.6591 146.577 64.57L146.327 65.0031ZM146.03 65.1768L145.78 65.6098C145.935 65.6997 146.127 65.6992 146.282 65.6085L146.03 65.1768ZM141.864 62.771L141.619 62.3356C141.462 62.4238 141.365 62.589 141.364 62.7685C141.363 62.948 141.459 63.1143 141.614 63.204L141.864 62.771ZM142.165 62.6011L142.415 62.1681C142.262 62.0797 142.074 62.0788 141.92 62.1657L142.165 62.6011ZM146.075 64.5714L145.778 64.7452L146.282 65.6085L146.58 65.4347L146.075 64.5714ZM146.28 64.7439L142.114 62.3381L141.614 63.204L145.78 65.6098L146.28 64.7439ZM142.11 63.2065L142.411 63.0366L141.92 62.1657L141.619 62.3356L142.11 63.2065ZM141.915 63.0342L146.077 65.4361L146.577 64.57L142.415 62.1681L141.915 63.0342Z" fill="#1D1D1B" mask="url(#path-128-inside-49_7830_9)"/>
<mask id="path-130-inside-50_7830_9" fill="white">
<path d="M141.529 67.7745L141.228 67.9483L139.147 66.7473L139.448 66.5735L141.529 67.7745Z"/>
</mask>
<path d="M141.529 67.7745L141.228 67.9483L139.147 66.7473L139.448 66.5735L141.529 67.7745Z" fill="#1D1D1B"/>
<path d="M141.529 67.7745L141.779 68.2076C141.934 68.1183 142.029 67.9532 142.029 67.7745C142.029 67.5958 141.934 67.4307 141.779 67.3414L141.529 67.7745ZM141.228 67.9483L140.978 68.3813C141.133 68.4706 141.323 68.4706 141.478 68.3813L141.228 67.9483ZM139.147 66.7473L138.897 66.3142C138.742 66.4035 138.647 66.5686 138.647 66.7473C138.647 66.9259 138.742 67.091 138.897 67.1803L139.147 66.7473ZM139.448 66.5735L139.698 66.1405C139.543 66.0512 139.353 66.0512 139.198 66.1405L139.448 66.5735ZM141.279 67.3414L140.978 67.5152L141.478 68.3813L141.779 68.2076L141.279 67.3414ZM141.478 67.5152L139.397 66.3142L138.897 67.1803L140.978 68.3813L141.478 67.5152ZM139.397 67.1804L139.698 67.0066L139.198 66.1405L138.897 66.3142L139.397 67.1804ZM139.198 67.0066L141.279 68.2075L141.779 67.3414L139.698 66.1405L139.198 67.0066Z" fill="#1D1D1B" mask="url(#path-130-inside-50_7830_9)"/>
<mask id="path-132-inside-51_7830_9" fill="white">
<path d="M142.729 67.079L142.428 67.2527L140.347 66.0518L140.648 65.878L142.729 67.079Z"/>
</mask>
<path d="M142.729 67.079L142.428 67.2527L140.347 66.0518L140.648 65.878L142.729 67.079Z" fill="#1D1D1B"/>
<path d="M142.729 67.079L142.979 67.512C143.134 67.4227 143.229 67.2576 143.229 67.079C143.229 66.9003 143.134 66.7352 142.979 66.6459L142.729 67.079ZM142.428 67.2527L142.178 67.6858C142.333 67.775 142.523 67.7751 142.678 67.6858L142.428 67.2527ZM140.347 66.0518L140.097 65.6187C139.943 65.708 139.847 65.8731 139.847 66.0518C139.847 66.2304 139.942 66.3955 140.097 66.4848L140.347 66.0518ZM140.648 65.878L140.898 65.4449C140.744 65.3557 140.553 65.3557 140.398 65.4449L140.648 65.878ZM142.479 66.6459L142.178 66.8197L142.678 67.6858L142.979 67.512L142.479 66.6459ZM142.678 66.8197L140.597 65.6187L140.097 66.4848L142.178 67.6858L142.678 66.8197ZM140.597 66.4848L140.898 66.3111L140.398 65.4449L140.097 65.6187L140.597 66.4848ZM140.398 66.311L142.479 67.512L142.979 66.6459L140.898 65.4449L140.398 66.311Z" fill="#1D1D1B" mask="url(#path-132-inside-51_7830_9)"/>
<mask id="path-134-inside-52_7830_9" fill="white">
<path d="M143.93 66.3892L143.629 66.563L141.548 65.362L141.845 65.1883L143.93 66.3892Z"/>
</mask>
<path d="M143.93 66.3892L143.629 66.563L141.548 65.362L141.845 65.1883L143.93 66.3892Z" fill="#1D1D1B"/>
<path d="M143.93 66.3892L144.18 66.8223C144.335 66.733 144.43 66.5678 144.43 66.389C144.43 66.2103 144.334 66.0452 144.179 65.956L143.93 66.3892ZM143.629 66.563L143.379 66.9961C143.533 67.0853 143.724 67.0853 143.879 66.9961L143.629 66.563ZM141.548 65.362L141.296 64.9304C141.142 65.0203 141.047 65.1853 141.048 65.3634C141.048 65.5416 141.144 65.706 141.298 65.7951L141.548 65.362ZM141.845 65.1883L142.095 64.755C141.939 64.6654 141.748 64.6661 141.593 64.7566L141.845 65.1883ZM143.68 65.9562L143.379 66.1299L143.879 66.9961L144.18 66.8223L143.68 65.9562ZM143.879 66.1299L141.798 64.929L141.298 65.7951L143.379 66.9961L143.879 66.1299ZM141.8 65.7937L142.097 65.6199L141.593 64.7566L141.296 64.9304L141.8 65.7937ZM141.596 65.6215L143.68 66.8225L144.179 65.956L142.095 64.755L141.596 65.6215Z" fill="#1D1D1B" mask="url(#path-134-inside-52_7830_9)"/>
<mask id="path-136-inside-53_7830_9" fill="white">
<path d="M145.128 65.6976L144.83 65.8675L142.75 64.6665L143.047 64.4927L145.128 65.6976Z"/>
</mask>
<path d="M145.128 65.6976L144.83 65.8675L142.75 64.6665L143.047 64.4927L145.128 65.6976Z" fill="#1D1D1B"/>
<path d="M145.128 65.6976L145.376 66.1317C145.531 66.0429 145.627 65.8779 145.628 65.699C145.628 65.5201 145.533 65.3545 145.378 65.2649L145.128 65.6976ZM144.83 65.8675L144.58 66.3005C144.734 66.3894 144.924 66.3898 145.079 66.3016L144.83 65.8675ZM142.75 64.6665L142.497 64.2349C142.343 64.3248 142.249 64.4897 142.25 64.6679C142.25 64.8461 142.345 65.0105 142.5 65.0996L142.75 64.6665ZM143.047 64.4927L143.297 64.06C143.142 63.9699 142.95 63.9703 142.794 64.0611L143.047 64.4927ZM144.88 65.2635L144.582 65.4334L145.079 66.3016L145.376 66.1317L144.88 65.2635ZM145.08 65.4344L142.999 64.2335L142.5 65.0996L144.58 66.3005L145.08 65.4344ZM143.002 65.0982L143.299 64.9244L142.794 64.0611L142.497 64.2349L143.002 65.0982ZM142.796 64.9254L144.877 66.1303L145.378 65.2649L143.297 64.06L142.796 64.9254Z" fill="#1D1D1B" mask="url(#path-136-inside-53_7830_9)"/>
<mask id="path-138-inside-54_7830_9" fill="white">
<path d="M152.329 61.5355L152.031 61.7093L147.87 59.3035L148.167 59.1297L152.329 61.5355Z"/>
</mask>
<path d="M152.329 61.5355L152.031 61.7093L147.87 59.3035L148.167 59.1297L152.329 61.5355Z" fill="#1D1D1B"/>
<path d="M152.329 61.5355L152.581 61.9672C152.735 61.8773 152.829 61.7124 152.829 61.5343C152.828 61.3562 152.733 61.1918 152.579 61.1027L152.329 61.5355ZM152.031 61.7093L151.781 62.1422C151.937 62.2321 152.129 62.2317 152.284 62.141L152.031 61.7093ZM147.87 59.3035L147.617 58.8718C147.464 58.9617 147.369 59.1266 147.37 59.3047C147.37 59.4828 147.465 59.6472 147.619 59.7364L147.87 59.3035ZM148.167 59.1297L148.417 58.6969C148.262 58.6069 148.07 58.6074 147.915 58.6981L148.167 59.1297ZM152.076 61.1039L151.779 61.2776L152.284 62.141L152.581 61.9672L152.076 61.1039ZM152.282 61.2764L148.12 58.8706L147.619 59.7364L151.781 62.1422L152.282 61.2764ZM148.122 59.7352L148.419 59.5614L147.915 58.6981L147.617 58.8718L148.122 59.7352ZM147.917 59.5626L152.078 61.9684L152.579 61.1027L148.417 58.6969L147.917 59.5626Z" fill="#1D1D1B" mask="url(#path-138-inside-54_7830_9)"/>
<mask id="path-140-inside-55_7830_9" fill="white">
<path d="M149.934 62.9217L149.633 63.0955L147.552 61.8906L147.853 61.7169L149.934 62.9217Z"/>
</mask>
<path d="M149.934 62.9217L149.633 63.0955L147.552 61.8906L147.853 61.7169L149.934 62.9217Z" fill="#1D1D1B"/>
<path d="M149.934 62.9217L150.184 63.3548C150.338 63.2655 150.434 63.1006 150.434 62.9221C150.434 62.7435 150.339 62.5785 150.184 62.489L149.934 62.9217ZM149.633 63.0955L149.382 63.5282C149.537 63.6178 149.728 63.6179 149.883 63.5285L149.633 63.0955ZM147.552 61.8906L147.302 61.4576C147.147 61.5468 147.052 61.7117 147.052 61.8903C147.052 62.0688 147.147 62.2339 147.301 62.3233L147.552 61.8906ZM147.853 61.7169L148.103 61.2842C147.949 61.1946 147.758 61.1944 147.603 61.2838L147.853 61.7169ZM149.684 62.4886L149.383 62.6624L149.883 63.5285L150.184 63.3548L149.684 62.4886ZM149.883 62.6628L147.802 61.4579L147.301 62.3233L149.382 63.5282L149.883 62.6628ZM147.802 62.3237L148.103 62.1499L147.603 61.2838L147.302 61.4576L147.802 62.3237ZM147.602 62.1496L149.683 63.3544L150.184 62.489L148.103 61.2842L147.602 62.1496Z" fill="#1D1D1B" mask="url(#path-140-inside-55_7830_9)"/>
<mask id="path-142-inside-56_7830_9" fill="white">
<path d="M158.335 58.0708L158.034 58.2446L153.872 55.8427L154.169 55.6689L158.335 58.0708Z"/>
</mask>
<path d="M158.335 58.0708L158.034 58.2446L153.872 55.8427L154.169 55.6689L158.335 58.0708Z" fill="#1D1D1B"/>
<path d="M158.335 58.0708L158.585 58.5039C158.74 58.4146 158.835 58.2494 158.835 58.0707C158.835 57.892 158.74 57.7269 158.585 57.6377L158.335 58.0708ZM158.034 58.2446L157.784 58.6777C157.939 58.7669 158.129 58.7669 158.284 58.6777L158.034 58.2446ZM153.872 55.8427L153.62 55.411C153.466 55.5009 153.372 55.6659 153.372 55.844C153.373 56.0222 153.468 56.1867 153.622 56.2757L153.872 55.8427ZM154.169 55.6689L154.419 55.2357C154.264 55.1461 154.072 55.1466 153.917 55.2372L154.169 55.6689ZM158.085 57.6378L157.784 57.8115L158.284 58.6777L158.585 58.5039L158.085 57.6378ZM158.284 57.8115L154.122 55.4096L153.622 56.2757L157.784 58.6777L158.284 57.8115ZM154.124 56.2743L154.422 56.1005L153.917 55.2372L153.62 55.411L154.124 56.2743ZM153.92 56.102L158.085 58.504L158.585 57.6377L154.419 55.2357L153.92 56.102Z" fill="#1D1D1B" mask="url(#path-142-inside-56_7830_9)"/>
<mask id="path-144-inside-57_7830_9" fill="white">
<path d="M153.532 60.8422L153.235 61.016L151.15 59.815L151.452 59.6413L153.532 60.8422Z"/>
</mask>
<path d="M153.532 60.8422L153.235 61.016L151.15 59.815L151.452 59.6413L153.532 60.8422Z" fill="#1D1D1B"/>
<path d="M153.532 60.8422L153.785 61.2739C153.939 61.184 154.033 61.019 154.032 60.8409C154.032 60.6627 153.937 60.4982 153.782 60.4092L153.532 60.8422ZM153.235 61.016L152.986 61.4493C153.141 61.5388 153.333 61.5382 153.488 61.4477L153.235 61.016ZM151.15 59.815L150.9 59.382C150.746 59.4713 150.65 59.6365 150.65 59.8152C150.65 59.994 150.746 60.1591 150.901 60.2483L151.15 59.815ZM151.452 59.6413L151.701 59.2082C151.547 59.119 151.356 59.1189 151.202 59.2082L151.452 59.6413ZM153.28 60.4106L152.983 60.5844L153.488 61.4477L153.785 61.2739L153.28 60.4106ZM153.485 60.5828L151.4 59.3818L150.901 60.2483L152.986 61.4493L153.485 60.5828ZM151.4 60.2481L151.701 60.0743L151.202 59.2082L150.9 59.382L151.4 60.2481ZM151.202 60.0743L153.283 61.2753L153.782 60.4092L151.701 59.2082L151.202 60.0743Z" fill="#1D1D1B" mask="url(#path-144-inside-57_7830_9)"/>
<mask id="path-146-inside-58_7830_9" fill="white">
<path d="M155.931 59.4562L155.63 59.63L153.549 58.429L153.85 58.2552L155.931 59.4562Z"/>
</mask>
<path d="M155.931 59.4562L155.63 59.63L153.549 58.429L153.85 58.2552L155.931 59.4562Z" fill="#1D1D1B"/>
<path d="M155.931 59.4562L156.181 59.8893C156.336 59.8 156.431 59.6349 156.431 59.4562C156.431 59.2776 156.336 59.1125 156.181 59.0232L155.931 59.4562ZM155.63 59.63L155.38 60.063C155.535 60.1523 155.725 60.1523 155.88 60.0631L155.63 59.63ZM153.549 58.429L153.299 57.996C153.145 58.0853 153.049 58.2503 153.049 58.429C153.049 58.6077 153.145 58.7728 153.299 58.8621L153.549 58.429ZM153.85 58.2552L154.1 57.8222C153.946 57.7329 153.755 57.7329 153.601 57.8222L153.85 58.2552ZM155.681 59.0231L155.38 59.1969L155.88 60.0631L156.181 59.8893L155.681 59.0231ZM155.88 59.1969L153.799 57.996L153.299 58.8621L155.38 60.063L155.88 59.1969ZM153.799 58.8621L154.1 58.6883L153.601 57.8222L153.299 57.996L153.799 58.8621ZM153.601 58.6883L155.681 59.8893L156.181 59.0232L154.1 57.8222L153.601 58.6883Z" fill="#1D1D1B" mask="url(#path-146-inside-58_7830_9)"/>
<mask id="path-148-inside-59_7830_9" fill="white">
<path d="M164.334 54.6053L164.033 54.7791L159.871 52.3733L160.172 52.2034L164.334 54.6053Z"/>
</mask>
<path d="M164.334 54.6053L164.033 54.7791L159.871 52.3733L160.172 52.2034L164.334 54.6053Z" fill="#1D1D1B"/>
<path d="M164.334 54.6053L164.584 55.0384C164.739 54.9491 164.834 54.784 164.834 54.6054C164.834 54.4267 164.739 54.2616 164.584 54.1723L164.334 54.6053ZM164.033 54.7791L163.783 55.212C163.937 55.3014 164.128 55.3015 164.283 55.2122L164.033 54.7791ZM159.871 52.3733L159.625 51.9378C159.469 52.026 159.372 52.1912 159.371 52.3707C159.37 52.5502 159.465 52.7164 159.621 52.8062L159.871 52.3733ZM160.172 52.2034L160.422 51.7703C160.269 51.682 160.081 51.681 159.927 51.7679L160.172 52.2034ZM164.084 54.1723L163.783 54.346L164.283 55.2122L164.584 55.0384L164.084 54.1723ZM164.283 54.3462L160.121 51.9404L159.621 52.8062L163.783 55.212L164.283 54.3462ZM160.117 52.8088L160.418 52.6389L159.927 51.7679L159.625 51.9378L160.117 52.8088ZM159.922 52.6365L164.084 55.0384L164.584 54.1723L160.422 51.7703L159.922 52.6365Z" fill="#1D1D1B" mask="url(#path-148-inside-59_7830_9)"/>
<mask id="path-150-inside-60_7830_9" fill="white">
<path d="M159.532 57.3767L159.235 57.5505L157.154 56.3496L157.451 56.1758L159.532 57.3767Z"/>
</mask>
<path d="M159.532 57.3767L159.235 57.5505L157.154 56.3496L157.451 56.1758L159.532 57.3767Z" fill="#1D1D1B"/>
<path d="M159.532 57.3767L159.784 57.8084C159.938 57.7185 160.032 57.5535 160.032 57.3754C160.031 57.1972 159.936 57.0328 159.782 56.9437L159.532 57.3767ZM159.235 57.5505L158.985 57.9836C159.14 58.0733 159.332 58.0728 159.487 57.9822L159.235 57.5505ZM157.154 56.3496L156.901 55.9179C156.748 56.0078 156.653 56.1728 156.654 56.3509C156.654 56.5291 156.75 56.6935 156.904 56.7826L157.154 56.3496ZM157.451 56.1758L157.701 55.7427C157.545 55.653 157.354 55.6535 157.199 55.7441L157.451 56.1758ZM159.28 56.9451L158.982 57.1189L159.487 57.9822L159.784 57.8084L159.28 56.9451ZM159.485 57.1175L157.404 55.9165L156.904 56.7826L158.985 57.9836L159.485 57.1175ZM157.406 56.7812L157.703 56.6074L157.199 55.7441L156.901 55.9179L157.406 56.7812ZM157.201 56.6088L159.282 57.8098L159.782 56.9437L157.701 55.7427L157.201 56.6088Z" fill="#1D1D1B" mask="url(#path-150-inside-60_7830_9)"/>
<mask id="path-152-inside-61_7830_9" fill="white">
<path d="M161.931 55.9923L161.63 56.166L159.549 54.9651L159.85 54.7913L161.931 55.9923Z"/>
</mask>
<path d="M161.931 55.9923L161.63 56.166L159.549 54.9651L159.85 54.7913L161.931 55.9923Z" fill="#1D1D1B"/>
<path d="M161.931 55.9923L162.181 56.4253C162.336 56.336 162.431 56.1709 162.431 55.9923C162.431 55.8136 162.336 55.6485 162.181 55.5592L161.931 55.9923ZM161.63 56.166L161.38 56.5991C161.535 56.6883 161.725 56.6884 161.88 56.5991L161.63 56.166ZM159.549 54.9651L159.299 54.532C159.145 54.6213 159.049 54.7864 159.049 54.965C159.049 55.1437 159.145 55.3088 159.299 55.3981L159.549 54.9651ZM159.85 54.7913L160.1 54.3582C159.946 54.269 159.755 54.269 159.601 54.3582L159.85 54.7913ZM161.681 55.5592L161.38 55.733L161.88 56.5991L162.181 56.4253L161.681 55.5592ZM161.88 55.733L159.799 54.532L159.299 55.3981L161.38 56.5991L161.88 55.733ZM159.799 55.3981L160.1 55.2244L159.601 54.3582L159.299 54.532L159.799 55.3981ZM159.601 55.2243L161.681 56.4253L162.181 55.5592L160.1 54.3582L159.601 55.2243Z" fill="#1D1D1B" mask="url(#path-152-inside-61_7830_9)"/>
<mask id="path-154-inside-62_7830_9" fill="white">
<path d="M170.329 51.1437L170.028 51.3175L165.866 48.9117L166.167 48.7379L170.329 51.1437Z"/>
</mask>
<path d="M170.329 51.1437L170.028 51.3175L165.866 48.9117L166.167 48.7379L170.329 51.1437Z" fill="#1D1D1B"/>
<path d="M170.329 51.1437L170.579 51.5768C170.734 51.4875 170.829 51.3225 170.829 51.1439C170.829 50.9653 170.734 50.8003 170.579 50.7109L170.329 51.1437ZM170.028 51.3175L169.778 51.7504C169.932 51.8398 170.123 51.8399 170.278 51.7506L170.028 51.3175ZM165.866 48.9117L165.616 48.4787C165.462 48.5679 165.366 48.7329 165.366 48.9115C165.366 49.0901 165.461 49.2552 165.616 49.3446L165.866 48.9117ZM166.167 48.7379L166.418 48.3051C166.263 48.2156 166.072 48.2156 165.917 48.3049L166.167 48.7379ZM170.079 50.7107L169.778 50.8845L170.278 51.7506L170.579 51.5768L170.079 50.7107ZM170.278 50.8846L166.116 48.4788L165.616 49.3446L169.778 51.7504L170.278 50.8846ZM166.116 49.3448L166.417 49.171L165.917 48.3049L165.616 48.4787L166.116 49.3448ZM165.917 49.1708L170.079 51.5766L170.579 50.7109L166.418 48.3051L165.917 49.1708Z" fill="#1D1D1B" mask="url(#path-154-inside-62_7830_9)"/>
<mask id="path-156-inside-63_7830_9" fill="white">
<path d="M165.531 53.9144L165.23 54.0882L163.149 52.8833L163.446 52.7096L165.531 53.9144Z"/>
</mask>
<path d="M165.531 53.9144L165.23 54.0882L163.149 52.8833L163.446 52.7096L165.531 53.9144Z" fill="#1D1D1B"/>
<path d="M165.531 53.9144L165.781 54.3475C165.936 54.2582 166.031 54.0932 166.031 53.9146C166.031 53.7359 165.936 53.5709 165.781 53.4815L165.531 53.9144ZM165.23 54.0882L164.979 54.5209C165.134 54.6105 165.325 54.6106 165.48 54.5212L165.23 54.0882ZM163.149 52.8833L162.897 52.4517C162.743 52.5415 162.649 52.7063 162.649 52.8844C162.649 53.0624 162.744 53.2268 162.898 53.316L163.149 52.8833ZM163.446 52.7096L163.696 52.2767C163.541 52.1868 163.349 52.1872 163.194 52.2779L163.446 52.7096ZM165.281 53.4813L164.98 53.6551L165.48 54.5212L165.781 54.3475L165.281 53.4813ZM165.48 53.6555L163.399 52.4506L162.898 53.316L164.979 54.5209L165.48 53.6555ZM163.401 53.315L163.699 53.1412L163.194 52.2779L162.897 52.4517L163.401 53.315ZM163.196 53.1425L165.281 54.3473L165.781 53.4815L163.696 52.2767L163.196 53.1425Z" fill="#1D1D1B" mask="url(#path-156-inside-63_7830_9)"/>
<mask id="path-158-inside-64_7830_9" fill="white">
<path d="M167.928 52.5299L167.631 52.7037L165.546 51.4988L165.847 51.3251L167.928 52.5299Z"/>
</mask>
<path d="M167.928 52.5299L167.631 52.7037L165.546 51.4988L165.847 51.3251L167.928 52.5299Z" fill="#1D1D1B"/>
<path d="M167.928 52.5299L168.18 52.9616C168.334 52.8717 168.428 52.7069 168.428 52.5289C168.428 52.3508 168.333 52.1864 168.178 52.0972L167.928 52.5299ZM167.631 52.7037L167.38 53.1366C167.536 53.2265 167.728 53.226 167.883 53.1353L167.631 52.7037ZM165.546 51.4988L165.296 51.0658C165.141 51.1551 165.046 51.3201 165.046 51.4987C165.046 51.6773 165.141 51.8424 165.296 51.9318L165.546 51.4988ZM165.847 51.3251L166.098 50.8924C165.943 50.8028 165.752 50.8026 165.597 50.892L165.847 51.3251ZM167.676 52.0982L167.378 52.272L167.883 53.1353L168.18 52.9616L167.676 52.0982ZM167.881 52.2708L165.796 51.0659L165.296 51.9318L167.38 53.1366L167.881 52.2708ZM165.796 51.9319L166.097 51.7581L165.597 50.892L165.296 51.0658L165.796 51.9319ZM165.596 51.7578L167.677 52.9626L168.178 52.0972L166.098 50.8924L165.596 51.7578Z" fill="#1D1D1B" mask="url(#path-158-inside-64_7830_9)"/>
<mask id="path-160-inside-65_7830_9" fill="white">
<path d="M176.331 47.6737L176.03 47.8475L171.868 45.4456L172.169 45.2718L176.331 47.6737Z"/>
</mask>
<path d="M176.331 47.6737L176.03 47.8475L171.868 45.4456L172.169 45.2718L176.331 47.6737Z" fill="#1D1D1B"/>
<path d="M176.331 47.6737L176.581 48.1068C176.736 48.0175 176.831 47.8524 176.831 47.6737C176.831 47.4951 176.736 47.33 176.581 47.2407L176.331 47.6737ZM176.03 47.8475L175.78 48.2806C175.935 48.3698 176.125 48.3698 176.28 48.2806L176.03 47.8475ZM171.868 45.4456L171.618 45.0125C171.464 45.1018 171.368 45.2669 171.368 45.4456C171.368 45.6242 171.463 45.7893 171.618 45.8786L171.868 45.4456ZM172.169 45.2718L172.419 44.8387C172.265 44.7495 172.074 44.7495 171.919 44.8387L172.169 45.2718ZM176.081 47.2407L175.78 47.4144L176.28 48.2806L176.581 48.1068L176.081 47.2407ZM176.28 47.4144L172.118 45.0125L171.618 45.8786L175.78 48.2806L176.28 47.4144ZM172.118 45.8786L172.419 45.7049L171.919 44.8387L171.618 45.0125L172.118 45.8786ZM171.919 45.7048L176.081 48.1068L176.581 47.2407L172.419 44.8387L171.919 45.7048Z" fill="#1D1D1B" mask="url(#path-160-inside-65_7830_9)"/>
<mask id="path-162-inside-66_7830_9" fill="white">
<path d="M171.533 50.4461L171.232 50.6199L169.151 49.4189L169.452 49.2451L171.533 50.4461Z"/>
</mask>
<path d="M171.533 50.4461L171.232 50.6199L169.151 49.4189L169.452 49.2451L171.533 50.4461Z" fill="#1D1D1B"/>
<path d="M171.533 50.4461L171.783 50.8792C171.938 50.7899 172.033 50.6248 172.033 50.4461C172.033 50.2675 171.938 50.1024 171.783 50.0131L171.533 50.4461ZM171.232 50.6199L170.982 51.0529C171.136 51.1422 171.327 51.1422 171.482 51.053L171.232 50.6199ZM169.151 49.4189L168.901 48.9859C168.746 49.0752 168.651 49.2402 168.651 49.4189C168.651 49.5976 168.746 49.7627 168.901 49.852L169.151 49.4189ZM169.452 49.2451L169.702 48.8121C169.547 48.7228 169.357 48.7228 169.202 48.8121L169.452 49.2451ZM171.283 50.0131L170.982 50.1868L171.482 51.053L171.783 50.8792L171.283 50.0131ZM171.482 50.1868L169.401 48.9859L168.901 49.852L170.982 51.0529L171.482 50.1868ZM169.401 49.852L169.702 49.6782L169.202 48.8121L168.901 48.9859L169.401 49.852ZM169.202 49.6782L171.283 50.8792L171.783 50.0131L169.702 48.8121L169.202 49.6782Z" fill="#1D1D1B" mask="url(#path-162-inside-66_7830_9)"/>
<mask id="path-164-inside-67_7830_9" fill="white">
<path d="M173.929 49.0606L173.632 49.2344L171.551 48.0335L171.849 47.8597L173.929 49.0606Z"/>
</mask>
<path d="M173.929 49.0606L173.632 49.2344L171.551 48.0335L171.849 47.8597L173.929 49.0606Z" fill="#1D1D1B"/>
<path d="M173.929 49.0606L174.182 49.4923C174.336 49.4024 174.43 49.2374 174.429 49.0593C174.429 48.8811 174.334 48.7167 174.179 48.6276L173.929 49.0606ZM173.632 49.2344L173.382 49.6675C173.538 49.7572 173.729 49.7567 173.885 49.6661L173.632 49.2344ZM171.551 48.0335L171.299 47.6018C171.145 47.6917 171.051 47.8567 171.051 48.0348C171.052 48.213 171.147 48.3774 171.301 48.4665L171.551 48.0335ZM171.849 47.8597L172.098 47.4266C171.943 47.3369 171.751 47.3374 171.596 47.428L171.849 47.8597ZM173.677 48.629L173.38 48.8028L173.885 49.6661L174.182 49.4923L173.677 48.629ZM173.882 48.8014L171.801 47.6004L171.301 48.4665L173.382 49.6675L173.882 48.8014ZM171.804 48.4651L172.101 48.2913L171.596 47.428L171.299 47.6018L171.804 48.4651ZM171.599 48.2927L173.68 49.4937L174.179 48.6276L172.098 47.4266L171.599 48.2927Z" fill="#1D1D1B" mask="url(#path-164-inside-67_7830_9)"/>
<mask id="path-166-inside-68_7830_9" fill="white">
<path d="M182.329 44.2096L182.028 44.3833L177.866 41.9814L178.167 41.8076L182.329 44.2096Z"/>
</mask>
<path d="M182.329 44.2096L182.028 44.3833L177.866 41.9814L178.167 41.8076L182.329 44.2096Z" fill="#1D1D1B"/>
<path d="M182.329 44.2096L182.579 44.6426C182.734 44.5533 182.829 44.3882 182.829 44.2096C182.829 44.0309 182.734 43.8658 182.579 43.7765L182.329 44.2096ZM182.028 44.3833L181.778 44.8164C181.933 44.9056 182.123 44.9056 182.278 44.8164L182.028 44.3833ZM177.866 41.9814L177.616 41.5483C177.462 41.6376 177.366 41.8027 177.366 41.9814C177.366 42.16 177.462 42.3251 177.616 42.4144L177.866 41.9814ZM178.167 41.8076L178.417 41.3746C178.263 41.2853 178.072 41.2853 177.917 41.3746L178.167 41.8076ZM182.079 43.7765L181.778 43.9503L182.278 44.8164L182.579 44.6426L182.079 43.7765ZM182.278 43.9503L178.116 41.5483L177.616 42.4144L181.778 44.8164L182.278 43.9503ZM178.116 42.4145L178.417 42.2407L177.917 41.3746L177.616 41.5483L178.116 42.4145ZM177.917 42.2407L182.079 44.6426L182.579 43.7765L178.417 41.3746L177.917 42.2407Z" fill="#1D1D1B" mask="url(#path-166-inside-68_7830_9)"/>
<mask id="path-168-inside-69_7830_9" fill="white">
<path d="M177.531 46.9833L177.23 47.157L175.149 45.9561L175.45 45.7823L177.531 46.9833Z"/>
</mask>
<path d="M177.531 46.9833L177.23 47.157L175.149 45.9561L175.45 45.7823L177.531 46.9833Z" fill="#1D1D1B"/>
<path d="M177.531 46.9833L177.781 47.4163C177.936 47.327 178.031 47.1619 178.031 46.9833C178.031 46.8046 177.936 46.6395 177.781 46.5502L177.531 46.9833ZM177.23 47.157L176.98 47.5901C177.135 47.6793 177.325 47.6793 177.48 47.5901L177.23 47.157ZM175.149 45.9561L174.899 45.523C174.744 45.6123 174.649 45.7774 174.649 45.956C174.649 46.1347 174.744 46.2998 174.899 46.3891L175.149 45.9561ZM175.45 45.7823L175.7 45.3492C175.545 45.26 175.355 45.26 175.2 45.3492L175.45 45.7823ZM177.281 46.5502L176.98 46.724L177.48 47.5901L177.781 47.4163L177.281 46.5502ZM177.48 46.724L175.399 45.523L174.899 46.3891L176.98 47.5901L177.48 46.724ZM175.399 46.3891L175.7 46.2154L175.2 45.3492L174.899 45.523L175.399 46.3891ZM175.2 46.2153L177.281 47.4163L177.781 46.5502L175.7 45.3492L175.2 46.2153Z" fill="#1D1D1B" mask="url(#path-168-inside-69_7830_9)"/>
<mask id="path-170-inside-70_7830_9" fill="white">
<path d="M179.933 45.5965L179.632 45.7703L177.551 44.5693L177.849 44.3955L179.933 45.5965Z"/>
</mask>
<path d="M179.933 45.5965L179.632 45.7703L177.551 44.5693L177.849 44.3955L179.933 45.5965Z" fill="#1D1D1B"/>
<path d="M179.933 45.5965L180.183 46.0295C180.338 45.9402 180.433 45.775 180.433 45.5963C180.433 45.4176 180.338 45.2524 180.183 45.1632L179.933 45.5965ZM179.632 45.7703L179.382 46.2033C179.537 46.2926 179.727 46.2926 179.882 46.2033L179.632 45.7703ZM177.551 44.5693L177.299 44.1376C177.145 44.2275 177.051 44.3925 177.051 44.5707C177.052 44.7488 177.147 44.9133 177.301 45.0023L177.551 44.5693ZM177.849 44.3955L178.098 43.9623C177.943 43.8727 177.751 43.8733 177.596 43.9639L177.849 44.3955ZM179.683 45.1634L179.382 45.3372L179.882 46.2033L180.183 46.0295L179.683 45.1634ZM179.882 45.3372L177.801 44.1362L177.301 45.0023L179.382 46.2033L179.882 45.3372ZM177.804 45.0009L178.101 44.8272L177.596 43.9639L177.299 44.1376L177.804 45.0009ZM177.599 44.8288L179.684 46.0297L180.183 45.1632L178.098 43.9623L177.599 44.8288Z" fill="#1D1D1B" mask="url(#path-170-inside-70_7830_9)"/>
<path d="M7.64092 103.995L7.26643 107.694L7.00391 107.493V110.266C7.00391 110.266 12.5401 115.139 17.0726 119.105C21.6011 123.075 19.5434 124.145 19.5434 124.145L52.7452 143.318L57.4514 144.167C64.7712 145.488 71.427 147.813 76.8513 150.944L78.245 151.751H82.345L88.0241 155.03L92.0237 152.721L7.64092 103.995Z" fill="#1D1D1B" stroke="#1D1D1B" stroke-width="0.5" stroke-miterlimit="10" stroke-linejoin="round"/>
<path d="M7.64087 101.223L92.0198 149.953L88.0202 152.262L82.3411 148.984H78.2411L76.8474 148.177C71.427 145.045 64.7673 142.72 57.4475 141.4L52.7413 140.55L19.5395 121.377C19.5395 121.377 21.5972 120.303 17.0686 116.338C12.5401 112.368 7 107.498 7 107.498L7.64087 101.223Z" fill="#FFD6BC" stroke="#1D1D1B" stroke-width="0.5" stroke-miterlimit="10" stroke-linejoin="round"/>
<path d="M19.5405 121.376V124.149L52.7423 143.322V140.55L19.5405 121.376Z" fill="#1D1D1B" stroke="#1D1D1B" stroke-width="0.5" stroke-miterlimit="10" stroke-linejoin="round"/>
<path d="M82.3427 148.984H78.2427V151.756H82.3427V148.984Z" fill="white" stroke="#1D1D1B" stroke-width="0.5" stroke-miterlimit="10" stroke-linejoin="round"/>
<path d="M88.0171 152.262V155.034L92.0168 152.725V149.952L88.0171 152.262Z" fill="white" stroke="#1D1D1B" stroke-width="0.5" stroke-miterlimit="10" stroke-linejoin="round"/>
<path d="M141.461 77.0416L138.586 75.3803L183.638 49.3634L186.513 51.0247L141.461 77.0416Z" fill="#FFEADD" stroke="#1D1D1B" stroke-width="0.5" stroke-linejoin="round"/>
<path d="M97.5098 49.1747L181.889 97.9047L185.888 95.5954L180.209 92.3169V89.9497L178.816 89.1426C173.395 86.0108 169.365 82.1685 167.079 77.94L165.608 75.2214L132.406 56.0484C132.406 56.0484 130.549 57.2378 123.677 54.6196C116.805 52.0014 108.37 48.8078 108.37 48.8078L97.5098 49.1747Z" fill="#FFD6BC" stroke="#1D1D1B" stroke-width="0.5" stroke-miterlimit="10" stroke-linejoin="round"/>
<path d="M113.559 58.4466L97.5103 49.1748V51.9474L113.559 61.2192L123.11 66.7337L125.512 65.3473L113.559 58.4466Z" fill="#1D1D1B" stroke="#1D1D1B" stroke-width="0.5" stroke-miterlimit="10" stroke-linejoin="round"/>
<path d="M138.086 72.6079V75.3806L181.89 100.678V97.9055L138.086 72.6079Z" fill="#1D1D1B" stroke="#1D1D1B" stroke-width="0.5" stroke-miterlimit="10" stroke-linejoin="round"/>
<path d="M132.409 56.048V54.6616L166.46 36.3845L173.058 40.1959L139.007 59.8594L132.409 56.048Z" fill="#1D1D1B" stroke="#1D1D1B" stroke-width="0.5" stroke-miterlimit="10" stroke-linejoin="round"/>
<path d="M132.409 54.6635L166.46 35L173.058 38.8114L139.007 58.4749L132.409 54.6635Z" fill="#FFEADD" stroke="#1D1D1B" stroke-width="0.5" stroke-miterlimit="10" stroke-linejoin="round"/>
<path d="M173.059 38.8115V40.1978L139.008 59.8613V58.475L173.059 38.8115Z" fill="white" stroke="#1D1D1B" stroke-width="0.5" stroke-miterlimit="10" stroke-linejoin="round"/>
<path d="M174.334 55.574L184.121 55.7247L188.271 53.3266L190.835 50.4612L187.009 48.2524L174.334 55.574Z" fill="#FFEADD" stroke="#1D1D1B" stroke-width="0.5" stroke-miterlimit="10" stroke-linejoin="round"/>
<path d="M174.335 55.5744V58.3471L184.122 58.4977V55.725L174.335 55.5744Z" fill="#FFD6BC" stroke="#1D1D1B" stroke-width="0.5" stroke-miterlimit="10" stroke-linejoin="round"/>
<path d="M188.273 53.3274V56.1001L184.123 58.4982V55.7255L188.273 53.3274Z" fill="#FFD6BC" stroke="#1D1D1B" stroke-width="0.5" stroke-miterlimit="10" stroke-linejoin="round"/>
<path d="M190.837 50.4623V53.2349L188.273 56.1003V53.3276L190.837 50.4623Z" fill="#FFD6BC" stroke="#1D1D1B" stroke-width="0.5" stroke-miterlimit="10" stroke-linejoin="round"/>
<path d="M138.084 72.612L183.636 46.3026L187.01 46.8664V48.2528L141.458 74.5583L138.084 72.612Z" fill="white" stroke="#1D1D1B" stroke-width="0.5" stroke-miterlimit="10" stroke-linejoin="round"/>
<path d="M138.084 71.2267L183.636 44.9174L187.01 46.8675L141.458 73.173L138.084 71.2267Z" fill="#FFEADD" stroke="#1D1D1B" stroke-width="0.5" stroke-miterlimit="10" stroke-linejoin="round"/>
<path d="M138.086 71.2269V72.6132L141.46 74.5595V73.1731L138.086 71.2269Z" fill="#1D1D1B" stroke="#1D1D1B" stroke-width="0.5" stroke-miterlimit="10" stroke-linejoin="round"/>
<path d="M134.785 70.7046L138.086 72.6122V71.2259L134.785 70.7046Z" fill="#1D1D1B" stroke="#1D1D1B" stroke-width="0.5" stroke-miterlimit="10" stroke-linejoin="round"/>
<path d="M181.891 97.9064V100.679L185.89 98.3698V95.5971L181.891 97.9064Z" fill="white" stroke="#1D1D1B" stroke-width="0.5" stroke-miterlimit="10" stroke-linejoin="round"/>
</svg>
