<svg width="8" height="8" viewBox="0 0 8 8" fill="none" xmlns="http://www.w3.org/2000/svg">
<g id="dark/chevron-up-down">
<path id="Vector" fill-rule="evenodd" clip-rule="evenodd" d="M2.14751 6.355C2.09989 6.30844 2.06205 6.25282 2.03621 6.19143C2.01038 6.13004 1.99707 6.06411 1.99707 5.9975C1.99707 5.9309 2.01038 5.86496 2.03621 5.80357C2.06205 5.74218 2.09989 5.68657 2.14751 5.64C2.24108 5.54763 2.36727 5.49584 2.49876 5.49584C2.63024 5.49584 2.75643 5.54763 2.85001 5.64L4.00001 6.9525L5.15001 5.635C5.24358 5.54263 5.36977 5.49084 5.50126 5.49084C5.63274 5.49084 5.75893 5.54263 5.85251 5.635C5.90013 5.68157 5.93797 5.73718 5.9638 5.79857C5.98964 5.85996 6.00295 5.9259 6.00295 5.9925C6.00295 6.05911 5.98964 6.12504 5.9638 6.18643C5.93797 6.24782 5.90013 6.30344 5.85251 6.35L4.62751 7.67L4.53001 7.775C4.38938 7.91545 4.19876 7.99434 4.00001 7.99434C3.80126 7.99434 3.61063 7.91545 3.47001 7.775L2.14751 6.355ZM5.85251 1.645C5.90013 1.69157 5.93797 1.74718 5.9638 1.80857C5.98964 1.86996 6.00295 1.9359 6.00295 2.0025C6.00295 2.06911 5.98964 2.13504 5.9638 2.19643C5.93797 2.25782 5.90013 2.31344 5.85251 2.36C5.75893 2.45237 5.63274 2.50416 5.50126 2.50416C5.36977 2.50416 5.24358 2.45237 5.15001 2.36L4.00001 1.0475L2.85001 2.365C2.75643 2.45737 2.63024 2.50916 2.49876 2.50916C2.36727 2.50916 2.24108 2.45737 2.14751 2.365C2.09989 2.31844 2.06205 2.26282 2.03621 2.20143C2.01038 2.14004 1.99707 2.07411 1.99707 2.0075C1.99707 1.9409 2.01038 1.87496 2.03621 1.81357C2.06205 1.75218 2.09989 1.69657 2.14751 1.65L3.37251 0.330001L3.47001 0.225001C3.61063 0.0845506 3.80126 0.00566101 4.00001 0.00566101C4.19876 0.00566101 4.38938 0.0845506 4.53001 0.225001L5.85251 1.645Z" fill="#6A6F85"/>
</g>
</svg>
