<svg width="32" height="32" viewBox="0 0 32 32" fill="none" xmlns="http://www.w3.org/2000/svg">
<g id="qonto-logo 1" clip-path="url(#clip0_7596_31)">
<path id="Vector" d="M32 16C32 7.16364 24.8364 0 16 0C7.16364 0 0 7.16364 0 16C0 24.8364 7.16364 32 16 32C24.8364 32 32 24.8364 32 16Z" fill="#1D1D1B"/>
<path id="Vector_2" d="M11.8825 13.996C10.8651 12.9775 10.2595 11.6193 10.1818 10.1818C11.6162 10.2611 12.9704 10.8691 13.9829 11.8884C14.9999 12.9071 15.6055 14.2652 15.6836 15.7026C14.2491 15.6233 12.8949 15.0153 11.8825 13.996ZM20.1174 13.996C19.105 15.0153 17.7508 15.6233 16.3163 15.7026C16.3943 14.265 16.9999 12.9068 18.017 11.888C19.0295 10.8689 20.3837 10.261 21.8181 10.1818C21.7404 11.6193 21.1348 12.9775 20.1174 13.996ZM20.1174 18.004C21.1348 19.0225 21.7404 20.3807 21.8181 21.8182C20.3837 21.7389 19.0295 21.1309 18.017 20.1116C17 19.0929 16.3944 17.7349 16.3163 16.2975C17.7508 16.3767 19.105 16.9847 20.1174 18.004ZM11.8825 18.004C12.8934 16.9855 14.2679 16.3767 15.7036 16.2967C15.6258 17.7331 15.0003 19.0916 13.9829 20.1116C12.9704 21.1309 11.6162 21.7389 10.1818 21.8182C10.2595 20.3807 10.8651 19.0225 11.8825 18.004Z" fill="white"/>
</g>
<defs>
<clipPath id="clip0_7596_31">
<rect width="32" height="32" fill="white"/>
</clipPath>
</defs>
</svg>
